<?xml version="1.0" standalone="no"?>
<!DOCTYPE svg PUBLIC "-//W3C//DTD SVG 20010904//EN"
 "http://www.w3.org/TR/2001/REC-SVG-20010904/DTD/svg10.dtd">
<svg version="1.0" xmlns="http://www.w3.org/2000/svg"
 width="814.000000pt" height="802.000000pt" viewBox="0 0 814.000000 802.000000"
 preserveAspectRatio="xMidYMid meet">

<g transform="translate(0.000000,802.000000) scale(0.100000,-0.100000)"
fill="#000000" stroke="none">
<path d="M0 4010 l0 -4010 4070 0 4070 0 0 4010 0 4010 -4070 0 -4070 0 0
-4010z m4807 3354 c-3 -3 -12 -4 -19 -1 -8 3 -5 6 6 6 11 1 17 -2 13 -5z
m-1627 -14 c-8 -5 -26 -9 -40 -9 -23 0 -23 1 -5 9 11 5 29 9 40 9 17 1 17 -1
5 -9z m1768 -1 c61 -15 76 -29 31 -29 -36 0 -89 19 -89 33 0 9 3 9 58 -4z
m-1902 -34 c-19 -14 -106 -22 -93 -9 7 8 65 22 92 23 20 0 20 0 1 -14z m1274
-13 c81 -10 168 -26 240 -42 25 -6 72 -15 105 -20 119 -19 271 -64 460 -135
39 -14 90 -33 115 -42 65 -22 236 -107 374 -185 66 -37 121 -68 124 -68 5 0
195 -131 202 -139 3 -4 39 -31 80 -61 41 -30 77 -57 80 -60 3 -3 52 -48 110
-100 138 -125 127 -114 266 -276 237 -276 454 -584 454 -645 0 -25 -41 -31
-63 -11 -11 9 -30 40 -44 67 -48 95 -234 362 -331 476 -111 128 -373 385 -442
432 -25 17 -47 33 -50 37 -3 3 -21 17 -40 30 -19 14 -39 28 -45 33 -42 36
-226 156 -298 195 -49 26 -132 70 -185 99 -103 56 -160 83 -172 83 -4 0 -20 6
-36 14 -50 24 -98 44 -119 49 -11 3 -58 19 -105 37 -104 39 -138 49 -280 80
-115 25 -160 33 -419 71 -94 14 -527 13 -646 -1 -156 -18 -297 -43 -343 -61
-13 -5 -34 -9 -47 -9 -13 0 -34 -4 -47 -9 -13 -5 -43 -14 -68 -21 -46 -13 -67
-20 -110 -38 -14 -6 -34 -13 -45 -15 -27 -7 -131 -45 -175 -64 -19 -8 -45 -19
-57 -24 -60 -24 -80 -32 -98 -42 -226 -119 -325 -178 -535 -318 -218 -144
-431 -359 -660 -664 -86 -115 -170 -230 -185 -255 -44 -71 -136 -180 -146
-174 -20 12 -8 69 28 123 20 31 54 82 75 114 21 32 38 60 38 62 0 9 140 198
219 295 128 158 440 465 541 535 121 82 386 246 445 275 28 13 62 32 76 42 28
19 180 85 329 142 52 21 111 44 130 51 19 8 62 22 95 31 33 9 76 20 95 26 46
13 123 29 273 58 28 6 89 14 135 19 45 4 85 11 89 15 10 10 520 0 613 -12z
m829 6 c29 -6 50 -16 48 -22 -13 -39 -109 -29 -115 12 -4 26 -1 26 67 10z
m-2259 -27 c0 -9 -77 -41 -98 -41 -29 0 -8 21 36 34 57 18 62 18 62 7z m2461
-32 c16 -8 17 -13 6 -29 -18 -29 -42 -33 -82 -14 -33 15 -45 41 -27 58 8 9 77
-1 103 -15z m-2635 -45 c-24 -17 -89 -19 -84 -2 6 16 80 37 93 26 6 -6 3 -14
-9 -24z m2762 -9 c25 -7 29 -32 8 -60 -14 -19 -15 -19 -51 0 -20 11 -39 24
-42 28 -8 13 29 48 46 43 9 -2 26 -7 39 -11z m-2928 -67 c-27 -22 -85 -21 -85
1 0 7 20 21 45 31 40 16 46 16 54 2 6 -11 2 -21 -14 -34z m1499 1 c25 -25 31
-39 31 -74 0 -38 -5 -47 -37 -74 -49 -40 -90 -41 -131 -3 -38 36 -49 75 -31
110 37 76 114 95 168 41z m1569 -1 c17 -14 15 -67 -3 -74 -19 -8 -75 33 -75
55 0 38 41 48 78 19z m-3194 -34 c9 -23 -37 -64 -72 -64 -25 0 -42 14 -42 36
0 7 75 43 91 44 9 0 20 -7 23 -16z m1247 -24 c3 -19 9 -47 13 -62 6 -21 3 -29
-14 -38 -30 -16 -50 4 -60 61 -10 53 3 81 33 77 16 -2 23 -12 28 -38z m655 25
c8 -20 -14 -108 -29 -117 -7 -4 -22 -8 -34 -8 -25 0 -30 22 -14 62 5 13 12 35
15 51 5 21 12 27 32 27 13 0 27 -7 30 -15z m-806 -75 c12 -55 11 -63 -4 -78
-12 -12 -21 -14 -33 -6 -18 11 -46 96 -41 122 3 15 45 33 59 26 3 -2 12 -31
19 -64z m989 0 c-4 -27 -11 -54 -14 -60 -7 -11 -58 -14 -67 -4 -3 3 0 29 8 57
15 58 37 81 64 67 14 -8 16 -17 9 -60z m-1170 2 c11 -21 22 -54 26 -74 6 -31
4 -38 -15 -48 -28 -15 -43 -2 -59 52 -7 24 -17 53 -21 64 -5 13 -4 26 3 33 21
21 46 11 66 -27z m2438 16 c18 -15 13 -48 -9 -62 -14 -8 -24 -7 -45 6 -29 17
-39 39 -29 65 7 17 58 12 83 -9z m-1101 2 c19 0 18 -19 -6 -73 -34 -77 -78
-67 -65 15 8 50 22 71 42 63 8 -3 21 -5 29 -5z m-2418 -22 c21 -21 13 -34 -40
-70 -81 -55 -95 -60 -118 -48 -39 21 -19 45 84 102 59 32 58 32 74 16z m913
-58 c9 -25 19 -53 24 -63 10 -23 -11 -47 -42 -47 -18 0 -27 8 -37 33 -35 83
-28 132 18 125 15 -2 26 -17 37 -48z m1688 36 c8 -10 8 -28 -2 -72 -13 -55
-15 -59 -43 -59 -28 0 -29 1 -26 49 4 76 41 119 71 82z m-1846 -97 c32 -72 32
-75 8 -89 -32 -17 -38 -12 -65 46 -30 66 -31 72 -10 95 23 26 37 15 67 -52z
m2919 54 c33 -29 16 -73 -28 -73 -25 0 -74 36 -74 54 0 36 69 49 102 19z
m-875 -25 c9 -7 7 -22 -8 -61 -27 -68 -31 -71 -73 -57 -41 13 -41 15 -21 64
29 68 61 85 102 54z m143 -48 c0 -33 -59 -150 -75 -150 -25 0 -28 44 -5 92 36
78 80 109 80 58z m-2354 -19 c3 -14 10 -35 16 -47 16 -33 6 -69 -19 -72 -17
-3 -26 5 -38 35 -27 64 -30 94 -11 109 24 17 45 7 52 -25z m-815 19 c28 -15
24 -34 -16 -69 -44 -39 -60 -39 -73 -1 -10 26 -8 32 19 55 34 28 42 30 70 15z
m2317 -40 c34 -5 92 -15 130 -21 154 -24 379 -84 516 -139 117 -46 188 -80
381 -180 173 -90 435 -288 595 -451 177 -181 379 -425 422 -509 7 -14 22 -38
34 -55 52 -72 142 -261 148 -312 4 -35 3 -53 -4 -53 -6 0 -41 61 -77 137 -36
75 -84 165 -105 199 -21 35 -38 68 -38 74 0 5 -4 10 -8 10 -4 0 -16 14 -26 30
-18 31 -84 119 -164 221 -136 171 -393 400 -624 558 -97 66 -368 211 -394 211
-2 0 -23 9 -47 19 -152 70 -446 156 -612 181 -38 6 -99 15 -135 21 -64 11
-139 12 -455 11 -310 -2 -690 -83 -970 -208 -118 -53 -249 -120 -287 -145 -14
-11 -29 -19 -33 -19 -10 0 -182 -116 -249 -169 -32 -25 -83 -65 -113 -87 -319
-245 -618 -649 -782 -1056 -6 -16 -15 -28 -21 -28 -13 0 -13 107 0 115 6 3 10
14 10 24 0 10 25 63 55 116 31 54 74 132 96 173 22 40 52 90 68 110 15 21 54
73 86 117 72 97 212 244 320 335 44 37 112 99 151 137 243 238 691 470 1099
569 33 8 76 19 95 24 19 4 73 14 120 20 47 6 109 16 139 22 135 25 517 25 679
-2z m1727 6 l30 -25 -22 -22 c-16 -16 -28 -20 -47 -15 -34 8 -54 49 -36 71 18
21 40 19 75 -9z m-755 -21 c25 -30 -27 -135 -67 -135 -26 0 -29 15 -13 69 20
71 53 98 80 66z m-2620 -71 c30 -53 30 -57 14 -75 -31 -34 -53 -24 -80 36 -27
63 -30 81 -11 88 32 14 47 4 77 -49z m-823 3 c8 -18 7 -27 -6 -42 -26 -31
-100 -95 -110 -95 -5 0 -14 13 -19 28 -9 27 -6 32 50 80 33 29 63 52 67 52 4
0 12 -10 18 -23z m3593 -26 c0 -18 -49 -93 -68 -105 -18 -11 -42 6 -42 29 0
12 16 43 36 69 30 40 38 45 55 36 10 -6 19 -19 19 -29z m749 5 c31 -33 25 -70
-11 -74 -46 -5 -86 56 -56 86 19 19 42 14 67 -12z m-2084 -25 c50 -6 124 -13
165 -16 41 -3 93 -10 115 -15 22 -5 69 -14 105 -21 95 -17 320 -80 385 -108
11 -5 36 -16 55 -24 19 -9 55 -23 80 -33 25 -10 86 -39 135 -64 300 -155 494
-298 745 -550 138 -137 203 -217 317 -388 130 -197 194 -331 233 -487 15 -63
18 -91 10 -99 -15 -15 -42 4 -51 35 -18 68 -156 346 -226 455 -67 107 -141
213 -160 232 -7 8 -25 30 -40 50 -103 140 -450 441 -623 542 -36 21 -85 50
-110 64 -90 53 -307 155 -375 176 -38 12 -92 30 -119 41 -27 10 -57 19 -67 19
-10 0 -20 4 -23 9 -3 5 -23 11 -43 14 -21 3 -60 11 -88 17 -165 37 -344 54
-575 54 -260 0 -437 -21 -625 -74 -22 -6 -51 -14 -65 -16 -14 -3 -34 -9 -45
-13 -11 -5 -51 -19 -90 -31 -179 -57 -387 -161 -580 -287 -164 -108 -259 -188
-450 -378 -73 -73 -235 -265 -235 -279 0 -3 -16 -26 -35 -52 -34 -45 -79 -117
-138 -224 -17 -30 -56 -118 -87 -195 -66 -168 -65 -165 -96 -165 -29 0 -29 4
-3 94 62 210 197 464 352 666 28 36 66 85 85 110 53 68 255 263 365 351 168
135 295 217 482 308 164 80 218 103 305 130 41 13 84 27 95 31 11 5 29 11 40
13 11 3 45 13 75 22 30 9 75 20 100 24 25 5 81 16 125 24 117 23 232 37 300
38 33 0 69 4 80 9 20 9 31 9 200 -9z m-1592 -41 c42 -56 42 -56 23 -76 -28
-27 -51 -16 -81 39 -50 94 -6 122 58 37z m3067 1 c7 -15 4 -31 -18 -73 -31
-59 -57 -71 -86 -39 -18 20 -18 22 19 76 40 58 67 69 85 36z m744 -52 c29 -22
32 -45 12 -71 -18 -24 -20 -23 -55 15 -34 35 -37 47 -19 65 17 17 32 15 62 -9z
m-4663 -9 c40 -22 9 -90 -42 -90 -24 0 -29 4 -29 24 0 21 34 76 46 76 3 0 14
-5 25 -10z m693 -30 c39 -44 42 -50 24 -68 -21 -21 -48 -13 -68 21 -10 17 -24
38 -30 45 -9 10 -9 17 0 27 19 23 35 18 74 -25z m3360 -2 c8 -13 3 -27 -24
-67 -36 -52 -58 -62 -80 -36 -9 11 -7 23 12 57 12 24 28 48 33 55 13 17 45 12
59 -9z m-3499 -85 c30 -45 31 -59 5 -73 -23 -12 -48 8 -75 60 -19 36 -13 50
20 50 17 0 32 -12 50 -37z m1763 25 c15 -15 16 -134 2 -143 -20 -12 -9 -22 29
-28 51 -6 91 -34 91 -62 0 -18 7 -24 33 -28 58 -10 165 -35 242 -57 22 -6 56
-15 76 -20 60 -15 180 -59 247 -91 35 -16 65 -29 67 -29 11 0 178 -111 238
-158 37 -30 133 -117 211 -195 149 -147 237 -265 337 -454 23 -42 47 -86 54
-97 7 -12 29 -70 49 -129 25 -78 33 -114 27 -130 -6 -15 -1 -53 15 -115 19
-75 23 -120 23 -238 1 -80 -2 -150 -5 -155 -3 -5 -14 -5 -25 1 -16 9 -17 13
-6 25 17 16 31 145 17 159 -14 14 -23 1 -25 -36 -2 -18 -5 -40 -8 -48 -10 -28
-14 -135 -6 -156 4 -12 29 -32 56 -45 49 -23 166 -109 159 -116 -2 -2 -29 5
-59 15 l-55 20 -6 -22 c-11 -39 -6 -71 15 -111 12 -22 25 -53 29 -70 10 -36
82 -212 103 -252 8 -15 27 -61 42 -100 15 -40 31 -75 36 -79 5 -3 9 -15 9 -26
0 -34 79 -157 111 -174 20 -10 29 -22 29 -39 l0 -25 -157 6 c-87 3 -162 9
-167 14 -6 6 -2 18 9 30 17 18 18 26 7 65 -16 60 -59 152 -83 176 -10 10 -14
19 -9 19 14 0 3 44 -27 103 l-23 47 -128 0 c-84 -1 -132 -5 -142 -13 -8 -7
-40 -41 -70 -76 -98 -114 -178 -192 -183 -179 -10 28 -39 -20 -43 -69 -2 -41
1 -51 21 -68 35 -28 19 -45 -47 -52 -52 -5 -59 -9 -99 -57 -24 -28 -60 -68
-80 -88 -20 -21 -47 -53 -59 -72 -13 -19 -30 -32 -37 -29 -7 3 -13 0 -13 -7 0
-6 -5 -8 -10 -5 -15 9 64 115 160 216 27 27 28 48 3 62 -12 7 -2 20 41 59 31
27 59 62 62 76 4 15 12 34 19 42 7 8 31 65 54 125 23 61 48 124 56 141 7 18
17 48 20 68 4 20 11 39 16 42 15 9 10 44 -6 44 -8 0 -15 -7 -15 -15 0 -9 -12
-21 -27 -27 -44 -19 -73 -49 -73 -76 0 -14 -3 -22 -6 -19 -11 11 -44 -13 -38
-27 3 -9 -1 -13 -12 -13 -13 2 -20 -7 -25 -28 l-6 -30 -11 28 c-15 35 -15 37
1 37 15 1 99 88 156 163 24 32 57 69 73 82 17 15 28 34 29 52 1 17 3 21 6 11
10 -39 38 -14 62 53 10 30 33 87 50 126 30 70 39 113 23 113 -5 0 -21 -13 -37
-30 -16 -16 -35 -30 -42 -30 -7 0 -13 -4 -13 -10 0 -5 -7 -10 -17 -10 -22 0
-93 -32 -93 -42 0 -4 -5 -8 -12 -8 -7 0 -5 6 4 18 9 9 19 27 22 38 4 14 18 24
38 28 39 8 58 23 58 48 0 28 -42 20 -50 -9 -3 -14 -9 -20 -16 -15 -16 10 1 52
21 52 18 0 21 46 3 54 -7 3 -2 5 12 5 52 -2 60 1 60 22 0 27 -36 59 -65 59
-13 0 -28 7 -35 15 -8 9 -21 13 -32 9 -12 -3 -31 4 -53 21 -29 22 -35 32 -35
64 0 24 -8 49 -21 66 -24 29 -17 29 -149 7 -30 -5 -70 -13 -87 -17 -21 -5 -33
-4 -33 3 0 6 -3 18 -7 28 -5 13 -3 16 9 12 11 -5 15 4 17 43 2 44 0 49 -19 49
-12 0 -18 -4 -15 -10 8 -13 -17 -120 -27 -114 -11 7 -10 91 1 98 13 9 -3 71
-19 74 -12 2 -14 -8 -12 -48 4 -56 -4 -100 -17 -100 -6 0 -7 25 -4 55 4 40 2
55 -7 55 -8 0 -10 -8 -6 -25 7 -28 1 -32 -20 -11 -8 8 -14 30 -14 49 0 19 -7
40 -15 47 -12 10 -15 29 -13 74 3 55 5 61 25 61 11 0 25 3 29 8 4 4 26 7 49 7
58 0 79 24 71 82 -3 24 -8 76 -9 115 l-4 73 43 21 c24 11 48 18 53 15 15 -10
18 -53 5 -77 -17 -30 -18 -188 -3 -240 12 -40 35 -57 53 -39 33 33 72 -12 57
-67 -9 -34 -33 -37 -41 -5 -3 13 -9 22 -15 21 -38 -8 -45 -14 -45 -34 0 -26
24 -50 40 -40 5 3 10 1 10 -4 0 -6 8 -11 18 -11 10 0 23 -5 30 -12 20 -20 54
19 47 54 -4 16 -2 28 4 28 12 0 24 -36 16 -49 -3 -5 -1 -12 5 -16 6 -4 8 -10
5 -15 -7 -11 23 -60 37 -60 17 0 53 -53 50 -73 -2 -10 4 -24 14 -31 9 -7 18
-25 20 -40 3 -28 28 -55 52 -56 6 0 12 -4 12 -9 0 -5 16 -25 35 -44 19 -19 35
-40 35 -47 0 -6 4 -9 9 -5 6 3 8 26 6 50 -2 25 -2 45 0 45 16 0 55 -26 55 -37
0 -7 11 -13 24 -13 20 0 24 6 29 47 4 37 0 55 -19 89 -28 50 -29 54 -10 54 8
0 21 9 29 21 14 19 15 18 37 -25 26 -55 40 -66 40 -33 0 14 7 30 15 37 13 11
15 6 15 -33 0 -61 8 -81 26 -66 10 8 14 34 14 81 0 44 4 67 10 63 16 -10 32
43 20 65 -5 10 -10 28 -10 39 0 26 -15 34 -40 21 -16 -9 -22 -8 -26 4 -4 11
-14 14 -30 10 -36 -9 -71 3 -79 28 -6 21 -7 20 -15 -10 -4 -18 -10 -35 -12
-38 -3 -2 -26 19 -52 48 -70 80 -76 87 -76 98 0 6 -4 10 -9 10 -5 0 -12 13
-16 29 -6 30 4 58 39 98 26 30 14 66 -29 92 -27 16 -35 27 -35 50 0 16 7 37
17 46 10 11 12 19 6 23 -6 4 -13 24 -17 46 -4 21 -11 46 -16 55 -4 9 -14 35
-20 58 -21 69 -98 146 -101 101 0 -7 -2 -25 -4 -40 -3 -21 6 -35 40 -66 24
-22 51 -57 59 -77 20 -46 20 -43 -1 -41 -12 0 -19 -7 -21 -21 -4 -27 -8 -28
-55 -8 -30 12 -37 12 -47 0 -8 -10 -26 -12 -63 -9 -75 7 -226 45 -265 66 -30
17 -42 17 -117 7 -79 -10 -86 -9 -113 10 -16 11 -37 38 -47 60 -17 38 -21 41
-60 41 -25 0 -49 7 -61 18 -20 18 -64 25 -64 10 0 -4 3 -8 8 -8 4 0 16 -17 27
-37 11 -21 24 -41 30 -45 5 -4 7 -9 4 -12 -3 -3 -15 3 -27 14 -30 29 -28 17
13 -58 20 -35 34 -66 32 -69 -2 -2 -18 12 -36 32 -25 29 -31 32 -31 16 0 -11
5 -23 11 -27 8 -4 7 -10 -1 -18 -9 -8 -16 -6 -29 10 -15 19 -19 20 -27 7 -8
-12 -14 -13 -37 -2 -15 7 -27 16 -27 21 0 4 -4 8 -10 8 -5 0 -10 -7 -10 -15 0
-26 -17 -16 -34 19 -9 19 -32 53 -51 76 -25 30 -33 48 -29 64 4 16 -3 29 -26
50 -33 29 -65 31 -128 11 -19 -6 -33 3 -91 64 -37 39 -71 71 -74 71 -3 0 -16
-24 -30 -52 -37 -82 -87 -124 -162 -137 -34 -6 -73 -11 -86 -11 -50 -1 -83
-52 -68 -104 5 -16 6 -32 3 -37 -2 -4 1 -28 7 -54 9 -35 9 -52 -1 -75 -21 -51
-45 -38 -100 52 -18 29 -35 46 -43 43 -7 -3 -30 1 -50 10 -51 21 -113 20 -122
-2 -5 -15 -4 -16 6 -5 7 6 18 12 24 12 16 0 155 -139 155 -155 0 -18 51 -54
81 -57 16 -2 27 4 34 20 9 21 35 31 35 13 0 -5 9 -11 19 -14 24 -6 73 -82 69
-107 -2 -11 18 -40 50 -74 30 -31 51 -56 47 -56 -9 0 -57 31 -82 54 -13 11
-23 16 -23 13 0 -11 48 -84 59 -91 5 -3 7 -15 4 -26 -5 -17 -13 -20 -55 -19
-27 1 -53 -2 -56 -8 -4 -5 -14 -13 -22 -17 -8 -3 -2 -4 14 -1 19 4 35 0 47
-11 27 -25 23 -34 -10 -21 -15 5 -37 7 -47 3 -18 -7 -18 -8 -1 -20 18 -14 24
-32 7 -21 -16 10 -11 -8 10 -35 24 -30 25 -40 4 -40 -8 0 -12 5 -9 10 3 6 -1
10 -10 10 -8 0 -18 6 -21 14 -7 17 -44 9 -44 -10 0 -8 -5 -14 -11 -14 -5 0 -8
-4 -4 -9 3 -6 -32 -47 -78 -93 -46 -46 -96 -105 -110 -131 -32 -57 -32 -54 -9
-60 13 -3 9 -8 -15 -18 -26 -11 -33 -19 -33 -41 0 -36 22 -36 45 -1 23 34 52
63 90 89 32 22 157 64 191 64 40 0 121 35 117 50 -4 12 -2 12 9 -1 18 -21 42
-29 58 -19 11 7 10 11 -3 25 -10 9 -17 19 -17 23 0 3 15 -9 33 -26 32 -31 107
-56 107 -36 0 5 -11 26 -25 46 -32 47 -9 40 25 -7 25 -35 40 -40 48 -15 3 9
-1 11 -12 7 -13 -5 -15 -2 -10 18 3 14 1 31 -5 39 -9 11 -7 15 11 19 23 6 58
-16 58 -37 1 -6 12 -24 25 -41 32 -39 51 -24 28 22 -12 26 -13 36 -3 48 6 8 9
19 5 25 -4 6 1 20 10 30 11 12 16 29 13 45 -3 14 -1 28 3 31 13 8 11 42 -3 48
-7 3 -4 5 7 3 11 -1 26 2 34 7 11 7 9 12 -10 22 -21 11 -22 13 -7 19 15 6 14
10 -9 36 -15 16 -32 29 -40 29 -7 0 -13 5 -13 10 0 6 7 10 15 10 12 0 14 7 9
28 -9 37 -47 72 -80 72 -41 0 -144 23 -144 32 0 4 42 8 94 8 53 0 98 4 101 10
3 6 13 10 22 10 9 0 40 18 69 40 29 22 73 51 98 65 l45 25 15 -22 c18 -26 21
-74 5 -84 -6 -3 -22 -1 -35 6 -19 11 -26 11 -39 0 -8 -7 -15 -18 -15 -24 0 -7
-20 -32 -45 -56 -43 -43 -50 -63 -17 -58 11 2 18 -5 20 -19 2 -12 11 -25 20
-28 15 -4 42 -47 42 -67 0 -4 -7 -8 -15 -8 -8 0 -15 -5 -15 -11 0 -19 33 -44
55 -41 27 4 64 -33 41 -41 -8 -3 -17 1 -20 9 -6 15 -36 20 -36 5 0 -5 7 -14
15 -21 9 -7 14 -19 11 -27 -7 -18 42 -96 55 -87 6 3 20 -2 31 -13 15 -13 22
-15 25 -5 3 6 9 9 14 6 6 -3 16 -1 24 6 9 7 15 8 20 0 11 -17 25 -11 25 12 l0
21 23 -21 c28 -26 37 -28 37 -6 0 11 6 14 20 9 13 -4 20 -2 20 6 0 10 3 10 12
1 16 -16 28 -15 28 3 0 9 6 12 15 9 8 -4 26 1 40 10 52 34 58 25 53 -79 l-4
-94 26 -5 c21 -3 220 -1 243 3 4 0 0 13 -9 27 -16 24 -16 26 0 42 13 14 20 14
36 4 11 -6 27 -12 35 -12 25 0 17 -28 -12 -44 l-28 -14 25 -6 c14 -3 39 -7 55
-8 30 -3 30 -3 33 -72 2 -51 7 -73 20 -82 14 -11 15 -17 4 -46 -6 -19 -12 -51
-12 -71 0 -20 -4 -39 -10 -42 -5 -3 -10 -19 -10 -34 0 -16 -7 -34 -15 -41 -8
-7 -15 -19 -15 -27 0 -18 -46 -110 -60 -118 -5 -3 -10 -15 -10 -26 0 -10 -4
-19 -10 -19 -5 0 -10 -8 -10 -19 0 -10 -7 -24 -15 -31 -9 -8 -12 -22 -8 -41 3
-17 1 -29 -5 -29 -13 0 -34 -62 -27 -81 5 -15 -35 -67 -114 -147 -24 -25 -47
-59 -52 -76 -13 -43 -1 -121 21 -141 20 -18 17 -21 141 111 49 52 139 134 139
127 0 -21 -38 -67 -161 -192 -36 -37 -43 -69 -15 -73 18 -3 15 -6 -19 -28 -22
-13 -41 -28 -43 -32 -2 -4 -10 -8 -18 -8 -8 0 -14 -10 -14 -22 0 -20 -1 -20
-18 -5 -27 25 -34 21 -27 -14 l7 -31 -31 28 c-17 15 -30 35 -29 43 3 18 -38
27 -80 16 -25 -6 -25 -7 -19 -93 3 -48 8 -94 11 -103 5 -10 -11 -32 -50 -70
-31 -30 -66 -64 -77 -76 -25 -28 -37 -29 -37 -3 0 11 -9 35 -20 55 -16 28 -18
40 -10 55 14 25 52 26 74 1 15 -16 22 -18 42 -9 13 6 24 16 24 23 0 17 -39 50
-84 71 l-39 18 -43 -50 c-26 -28 -44 -59 -44 -73 0 -25 16 -83 31 -113 14 -28
10 -65 -7 -72 -16 -6 -44 9 -42 22 0 4 -1 12 -2 17 -1 6 -3 17 -4 25 -1 10
-12 15 -35 15 -19 0 -36 6 -39 13 -3 9 3 11 22 6 21 -5 26 -3 26 12 -1 19 -86
91 -102 86 -5 -1 -18 4 -30 12 -11 8 -27 12 -34 9 -9 -3 -14 1 -14 12 0 9 -5
15 -12 13 -23 -8 -19 -28 10 -45 16 -10 27 -24 25 -30 -3 -7 0 -13 6 -13 6 0
11 -4 11 -10 0 -5 -9 -10 -20 -10 -11 0 -20 7 -20 15 0 20 -20 19 -35 -2 -8
-10 -19 -14 -30 -10 -15 6 -15 10 -4 24 15 18 13 50 -4 71 -6 8 -31 23 -56 35
-25 11 -57 28 -71 38 -97 66 -216 120 -288 130 -139 20 -314 82 -332 119 -31
61 -32 268 -2 278 7 2 16 -5 19 -17 3 -12 11 -21 17 -21 7 0 17 -10 23 -22 60
-133 136 -228 183 -228 11 0 29 -5 40 -12 28 -18 35 -3 11 21 -36 36 -20 102
22 92 4 0 10 6 13 14 11 29 34 17 34 -18 0 -18 5 -38 11 -44 17 -17 3 -60 -21
-66 -27 -7 -25 -27 3 -27 12 0 30 -7 40 -14 21 -16 68 -9 61 9 -7 18 31 29 55
16 35 -19 69 -12 107 21 20 18 43 47 50 65 19 44 18 128 -2 169 -18 39 -87
104 -109 104 -17 0 -19 -11 -6 -26 4 -5 11 -26 14 -48 5 -32 3 -39 -13 -43
-11 -3 -20 -13 -20 -22 0 -14 -2 -14 -10 -1 -5 8 -7 25 -4 36 12 46 -54 114
-109 114 -19 0 -73 53 -82 79 -3 12 -10 19 -15 16 -4 -3 -13 2 -20 10 -7 8
-16 15 -20 15 -5 0 -41 19 -82 43 -83 50 -129 62 -160 44 -16 -9 -22 -9 -25 1
-3 6 -9 12 -14 12 -6 0 -8 -4 -4 -9 3 -5 1 -12 -4 -15 -5 -4 -12 -2 -15 2 -3
5 -22 9 -43 10 -21 1 -48 4 -61 6 -15 3 -25 -1 -29 -10 -4 -12 -8 -13 -13 -4
-4 7 -13 9 -19 6 -16 -10 -14 -528 1 -562 6 -13 22 -31 35 -39 12 -9 23 -20
23 -25 0 -13 -327 -13 -334 -1 -9 14 4 41 20 41 31 0 39 43 41 228 1 150 -1
185 -13 197 -21 21 -67 31 -72 17 -2 -7 -10 -12 -17 -12 -8 0 -19 -8 -24 -17
-16 -27 -13 2 3 34 8 15 22 48 31 73 38 100 36 96 46 77 18 -32 32 -19 25 23
-5 30 -3 39 6 38 20 -4 20 183 1 199 -13 10 -12 15 3 38 13 20 15 38 10 87 -3
34 -8 64 -11 67 -3 3 -21 4 -39 3 -29 -2 -34 1 -39 24 -4 23 -2 25 19 20 17
-5 24 -2 24 9 0 8 -5 15 -11 15 -6 0 -9 8 -7 18 3 15 20 18 133 22 167 6 195
3 195 -21 0 -10 -3 -19 -7 -19 -16 0 -53 -67 -47 -84 8 -21 16 -20 34 4 9 12
17 16 21 9 4 -7 11 -5 22 5 13 14 16 14 27 1 15 -18 30 -20 30 -4 0 6 11 20
25 31 17 13 25 29 25 51 0 32 0 32 13 8 6 -14 18 -26 26 -29 8 -3 11 0 7 7 -4
6 -1 17 6 24 7 8 27 31 43 52 17 21 40 51 53 66 34 42 102 193 102 228 0 29
-2 30 -36 29 -20 -1 -38 -6 -40 -13 -6 -15 -159 -12 -201 4 -24 10 -33 19 -33
36 0 13 4 26 9 29 5 3 14 27 20 53 13 55 50 133 63 133 17 0 7 24 -28 63 -34
37 -35 41 -20 53 10 6 13 15 8 18 -9 5 -15 55 -14 108 1 22 -5 29 -33 38 -43
14 -49 24 -34 51 11 21 10 21 -26 15 -21 -4 -45 -11 -54 -16 -9 -5 -32 -11
-52 -15 -20 -3 -63 -25 -98 -51 -56 -42 -63 -45 -79 -31 -17 15 -35 20 -60 18
-7 0 -35 -22 -62 -47 -45 -42 -50 -51 -50 -91 0 -42 -32 -123 -48 -123 -4 0
-13 5 -19 11 -13 13 -65 -12 -99 -48 -19 -20 -24 -37 -24 -78 0 -35 5 -57 15
-65 8 -7 15 -18 15 -25 0 -18 -50 -56 -63 -48 -6 4 -8 -4 -3 -23 3 -16 8 -43
10 -60 4 -31 3 -31 -14 -14 -14 14 -17 28 -13 59 5 36 3 41 -14 41 -10 0 -24
-5 -31 -12 -9 -9 -12 -7 -12 9 0 11 -7 26 -15 33 -22 18 -18 47 13 99 16 25
34 67 41 93 7 26 22 55 32 64 11 9 19 22 19 28 1 9 37 52 126 148 9 9 14 27
12 40 -4 23 -5 23 -16 -4 -6 -16 -18 -28 -26 -28 -9 0 -20 -9 -26 -21 -9 -16
-14 -18 -25 -9 -19 16 -47 -1 -82 -47 -15 -21 -45 -54 -65 -75 -24 -24 -38
-48 -38 -63 0 -14 -4 -25 -9 -25 -5 0 -12 -10 -17 -22 -6 -19 -8 -15 -11 22
-4 41 5 91 27 145 5 11 13 35 19 54 35 108 249 377 417 522 87 74 323 221 429
265 108 46 212 84 228 84 10 0 25 4 35 9 9 5 43 17 75 26 31 9 55 20 53 24 -8
12 156 85 194 87 37 2 132 18 190 32 21 5 34 14 32 22 -8 32 12 91 39 119 31
33 48 38 67 19z m2466 -4 c20 -20 20 -33 -1 -56 -22 -25 -39 -23 -59 7 -32 49
19 91 60 49z m-600 -10 c6 -16 -36 -85 -73 -118 -19 -18 -23 -18 -37 -4 -13
13 -10 21 37 76 29 34 55 62 60 62 4 0 10 -7 13 -16z m-4257 -2 c9 -6 6 -17
-12 -44 -30 -44 -51 -54 -65 -28 -15 29 -12 47 12 64 25 17 46 20 65 8z m5053
-36 c0 -8 -4 -17 -8 -20 -13 -8 -35 11 -28 23 10 16 36 14 36 -3z m-103 -61
c15 -32 15 -37 1 -51 -23 -23 -58 -2 -58 34 0 27 15 52 32 52 5 0 16 -16 25
-35z m-5049 -24 c4 -24 -41 -81 -64 -81 -15 0 -44 27 -44 41 0 6 13 24 30 40
36 36 73 36 78 0z m2176 7 c14 -23 -5 -42 -33 -33 -20 6 -28 34 -14 49 11 11
35 3 47 -16z m-1656 -8 c91 -56 56 -209 -48 -210 -19 0 -50 9 -67 20 -31 19
-33 23 -33 77 1 64 15 89 65 116 39 21 44 21 83 -3z m1432 10 c0 -5 -7 -10
-15 -10 -8 0 -15 5 -15 10 0 6 7 10 15 10 8 0 15 -4 15 -10z m2585 -6 c34 -9
65 -65 65 -116 0 -38 -5 -50 -27 -67 -38 -30 -63 -34 -105 -16 -83 34 -92 151
-14 189 33 17 50 19 81 10z m583 -79 c6 -14 18 -25 25 -25 24 0 59 -46 52 -69
-10 -31 -31 -26 -61 17 -16 20 -37 44 -48 53 -11 10 -17 23 -13 33 9 24 32 19
45 -9z m-3309 -4 c12 -21 5 -31 -20 -31 -22 0 -33 16 -25 35 8 21 33 19 45 -4z
m1261 -1 c0 -23 -35 -28 -43 -6 -7 18 1 26 25 26 11 0 18 -7 18 -20z m160 4
c0 -8 -5 -12 -10 -9 -6 4 -8 11 -5 16 9 14 15 11 15 -7z m-3355 -34 l27 -10
-28 -38 c-16 -20 -51 -60 -79 -89 -27 -29 -61 -74 -75 -100 -37 -72 -62 -103
-92 -119 -27 -14 -28 -13 -28 8 0 30 36 90 88 143 6 8 12 16 12 19 0 9 101
157 120 176 23 23 21 23 55 10z m1632 -52 c-3 -8 -6 -5 -6 6 -1 11 2 17 5 13
3 -3 4 -12 1 -19z m2057 -19 c-3 -5 -10 -7 -15 -3 -5 3 -7 10 -3 15 3 5 10 7
15 3 5 -3 7 -10 3 -15z m-2176 -11 c15 -15 16 -45 1 -53 -12 -8 -49 23 -49 41
0 11 13 21 31 23 3 1 10 -4 17 -11z m3875 -29 c16 -22 12 -59 -6 -59 -33 0
-62 62 -34 73 21 9 25 8 40 -14z m-1626 -45 c-3 -4 -14 -3 -24 0 -15 6 -15 8
-3 16 16 10 39 -4 27 -16z m1137 -8 c9 -15 3 -25 -38 -62 -48 -44 -68 -51 -74
-23 -3 17 78 109 92 105 5 -1 14 -10 20 -20z m574 -38 c15 -19 31 -84 23 -96
-9 -15 -26 -3 -56 38 -32 44 -33 70 -1 70 13 0 28 -6 34 -12z m-1528 -14 c0
-8 -5 -12 -10 -9 -6 4 -8 11 -5 16 9 14 15 11 15 -7z m-3634 -46 c51 -40 69
-78 44 -93 -14 -9 -97 40 -110 65 -28 51 13 69 66 28z m1064 -3 c0 -26 -14
-33 -25 -15 -9 14 1 40 15 40 5 0 10 -11 10 -25z m3621 -1 c11 -13 6 -22 -34
-60 -50 -47 -71 -54 -82 -27 -4 13 6 30 39 60 50 47 58 50 77 27z m-1146 -29
c0 -10 -6 -20 -12 -22 -8 -3 -13 5 -13 22 0 17 5 25 13 23 6 -3 12 -13 12 -23z
m1702 -33 c10 -6 43 -109 43 -134 0 -23 -31 11 -55 61 -31 66 -26 97 12 73z
m-5308 -44 c49 -32 61 -50 41 -63 -20 -12 -126 67 -115 86 9 14 19 11 74 -23z
m4848 16 c7 -19 -25 -51 -89 -88 -47 -27 -65 -23 -54 12 6 17 109 92 128 92 5
0 11 -7 15 -16z m-4888 -73 c29 -24 33 -32 27 -55 -6 -24 -10 -27 -34 -21 -54
13 -104 84 -69 98 25 11 43 6 76 -22z m801 -6 c18 -22 3 -55 -26 -55 -32 0
-41 25 -19 50 22 24 29 25 45 5z m4164 -24 c7 -11 -17 -31 -75 -65 -92 -52
-111 -19 -22 38 57 36 87 44 97 27z m-5066 -60 c15 -10 37 -21 49 -25 25 -8
38 -35 24 -49 -21 -21 -152 58 -137 81 10 17 34 15 64 -7z m-488 -276 c6 -115
13 -314 17 -440 5 -200 4 -234 -10 -261 -13 -26 -14 -43 -7 -95 5 -35 11 -82
12 -104 3 -39 4 -40 38 -37 61 4 60 3 60 119 0 65 4 103 9 98 5 -6 11 -21 14
-35 3 -17 5 -10 7 20 l3 45 8 -50 c19 -107 22 -167 8 -175 -15 -10 53 -25 75
-17 8 3 19 29 25 57 20 95 61 96 61 1 0 -70 4 -73 155 -109 29 -8 30 -9 37
-87 4 -44 10 -198 13 -343 3 -158 9 -271 16 -283 19 -36 13 -178 -10 -249 -20
-60 -71 -130 -94 -130 -5 0 -30 -15 -56 -33 -84 -59 -127 -70 -286 -71 -85 -1
-123 5 -171 26 -11 5 -41 11 -65 12 -56 4 -74 14 -120 63 l-37 38 -6 123 -7
122 24 0 c27 0 54 -27 82 -82 11 -21 23 -38 26 -38 4 0 14 -17 22 -37 19 -48
52 -86 75 -88 10 0 29 -9 42 -18 14 -9 30 -17 37 -17 7 0 13 -4 13 -9 0 -5 13
-15 28 -22 38 -18 223 -20 229 -1 3 6 10 12 17 12 24 0 95 71 106 106 7 20 10
59 7 87 -4 48 -9 55 -84 128 -67 64 -88 78 -131 89 -29 6 -55 16 -58 21 -3 5
-13 9 -23 9 -10 0 -24 6 -30 14 -7 8 -35 17 -62 21 -37 5 -60 16 -87 41 -42
38 -72 44 -72 14 0 -27 -14 -25 -30 5 -7 14 -17 25 -22 25 -5 0 -2 -13 7 -30
14 -28 14 -30 -5 -42 -17 -11 -20 -23 -20 -77 0 -35 -2 -62 -5 -60 -2 3 -5 59
-5 124 -2 100 -6 132 -27 194 -34 101 -34 190 2 291 24 67 27 84 21 165 -3 50
-5 234 -5 409 0 313 0 321 25 400 13 45 31 92 38 105 12 21 14 16 19 -60 4
-46 10 -220 14 -386 6 -276 5 -304 -11 -328 -10 -15 -15 -34 -11 -43 4 -9 7
-43 5 -74 -2 -65 8 -72 61 -41 29 17 29 18 29 115 0 63 4 98 11 98 6 0 3 7 -5
16 -13 13 -16 43 -16 172 1 358 23 764 47 837 13 40 23 -37 33 -250z m5628
223 c4 -19 -100 -91 -124 -86 -38 7 -20 39 41 72 64 36 78 38 83 14z m-980
-30 c7 -7 12 -25 12 -41 0 -26 -3 -28 -32 -25 -26 2 -34 8 -36 27 -3 15 3 30
14 38 22 16 27 16 42 1z m1498 -63 c4 -33 8 -443 8 -911 1 -865 0 -889 -33
-802 -8 21 -10 18 -24 -27 -16 -50 -16 -50 -16 110 -1 88 -4 432 -7 765 -5
542 2 889 19 917 3 5 14 9 25 9 17 0 21 -10 28 -61z m-5748 37 c15 -10 39 -24
55 -32 27 -14 34 -34 18 -59 -7 -11 -22 -6 -75 24 -66 37 -76 51 -54 73 16 16
25 15 56 -6z m5892 -106 l31 -78 10 -887 c5 -504 6 -1084 1 -1346 l-8 -460
-40 -98 -39 -99 -7 349 c-6 335 2 503 24 503 4 0 8 32 8 70 0 40 4 70 10 70 6
0 10 82 10 226 0 200 -2 224 -15 210 -12 -11 -15 -45 -16 -158 -1 -102 -6 -44
-15 202 -21 571 -16 1624 8 1588 4 -7 22 -48 38 -92z m-4980 74 c0 -13 -7 -20
-20 -20 -19 0 -27 20 -13 33 13 14 33 6 33 -13z m1512 -12 c27 -42 120 -345
116 -379 -4 -47 -22 -46 -42 3 -10 24 -22 51 -27 60 -5 10 -9 29 -9 42 0 14
-4 28 -10 31 -5 3 -10 17 -10 30 0 13 -4 34 -9 47 -8 21 -20 73 -36 156 -8 37
6 42 27 10z m2888 -12 c0 -17 -20 -33 -77 -63 -57 -28 -79 -29 -93 -3 -10 19
-5 23 52 50 69 32 118 39 118 16z m-5370 -80 c27 -19 55 -36 62 -38 10 -4 10
-10 1 -31 -16 -34 -26 -34 -85 4 -38 25 -48 37 -48 58 0 25 7 41 17 41 2 0 26
-15 53 -34z m5425 -31 c0 -22 -97 -74 -137 -75 -49 0 -33 29 30 56 31 13 64
28 72 34 21 12 35 7 35 -15z m204 -61 c13 -41 15 -132 16 -544 0 -411 2 -499
14 -520 19 -32 18 -164 -2 -241 -10 -43 -11 -73 -4 -128 8 -54 7 -75 -2 -84
-7 -7 -12 -7 -11 -2 2 6 2 26 1 45 -1 27 -4 32 -12 20 -8 -11 -9 -4 -7 28 4
45 -2 51 -22 27 -7 -8 -24 -15 -39 -15 -31 -1 -146 -70 -116 -70 26 0 130
-101 167 -161 15 -26 35 -77 44 -115 22 -95 53 -174 79 -204 13 -14 26 -34 29
-46 3 -11 24 -31 46 -43 44 -24 48 -34 24 -58 -18 -18 -41 -19 -134 -8 -71 8
-117 29 -126 58 -3 10 -22 46 -41 80 -65 113 -97 183 -134 290 -26 75 -38 75
-50 0 -18 -114 -22 -133 -30 -133 -4 0 -10 -8 -12 -17 -4 -14 -5 -13 -6 4 -1
29 -17 38 -29 17 -14 -25 -22 35 -24 193 -2 123 -4 132 -22 137 -11 3 -30 3
-41 0 -19 -5 -20 -11 -17 -96 4 -108 -4 -169 -20 -147 -7 10 -8 -1 -5 -35 3
-27 1 -43 -3 -36 -4 7 -11 -22 -14 -66 -8 -85 8 -159 39 -194 31 -34 10 -40
-148 -40 -176 0 -194 6 -156 47 53 57 54 63 50 278 -7 298 -6 354 3 545 11
218 6 255 -39 305 -19 20 -33 40 -30 44 2 4 55 6 117 4 62 -2 127 1 143 5 17
5 44 4 62 -1 22 -7 52 -7 88 0 44 8 58 7 67 -4 7 -9 26 -13 52 -11 l41 3 9 68
c8 67 25 91 27 40 l1 -28 8 30 8 30 2 -35 c4 -51 5 -53 18 -77 7 -12 12 -27
12 -34 0 -21 32 -49 57 -49 23 0 23 1 23 123 0 67 -3 136 -8 152 -4 17 -5 154
-1 305 10 409 22 484 58 364z m-5828 -1 c11 -31 39 -370 39 -485 0 -76 -1 -78
-30 -93 -64 -33 -63 -38 -56 203 8 282 17 402 31 402 3 0 10 -12 16 -27z m953
-36 c-8 -21 -40 -22 -48 -2 -3 8 2 22 11 30 14 14 18 14 30 2 7 -7 11 -21 7
-30z m801 -7 c7 -11 -30 -36 -67 -45 -21 -5 -28 -3 -28 8 0 31 79 62 95 37z
m1933 -22 c3 -21 -1 -27 -20 -30 -17 -2 -24 -11 -26 -31 -2 -16 -8 -27 -15
-24 -13 4 -30 95 -21 109 3 5 22 8 42 6 32 -3 37 -7 40 -30z m-3538 7 l25 -13
-27 -7 c-31 -8 -48 0 -48 21 0 18 17 17 50 -1z m2300 -49 c0 -10 -7 -12 -22
-8 -21 5 -21 6 -2 13 10 4 20 8 22 8 1 1 2 -5 2 -13z m-910 -5 c0 -6 -4 -13
-10 -16 -5 -3 -10 1 -10 9 0 9 5 16 10 16 6 0 10 -4 10 -9z m1514 -22 c-3 -5
-14 -9 -25 -9 -21 0 -26 26 -6 33 15 5 39 -12 31 -24z m1656 1 c28 -28 25 -51
-14 -89 -40 -39 -57 -37 -105 13 l-32 33 36 32 c42 36 85 41 115 11z m972
-334 c3 -154 -2 -174 -35 -141 -9 8 -21 15 -27 15 -9 0 -11 17 -6 63 3 34 9
134 12 222 8 191 23 221 41 82 7 -51 13 -159 15 -241z m-3730 257 c19 -17 24
-38 9 -47 -12 -8 -63 42 -56 54 9 15 26 12 47 -7z m1288 -21 c0 -34 -55 -91
-72 -74 -9 9 -7 16 5 30 9 10 17 22 17 26 0 15 33 55 41 50 5 -3 9 -17 9 -32z
m3071 -167 c28 -121 31 -151 40 -445 6 -173 9 -508 7 -745 -4 -466 -2 -447
-71 -720 l-22 -90 -5 435 c-7 640 0 1750 12 1720 5 -14 23 -83 39 -155z
m-1711 84 c0 -11 -4 -18 -10 -14 -5 3 -7 12 -3 20 7 21 13 19 13 -6z m390 -15
c0 -17 -6 -24 -20 -24 -14 0 -20 7 -20 23 0 13 3 26 6 30 12 12 34 -6 34 -29z
m-4190 -22 c0 -19 -18 -42 -32 -42 -10 0 -11 44 -1 53 13 14 33 7 33 -11z
m1760 -7 c7 -8 8 -15 2 -15 -5 0 -15 7 -22 15 -7 8 -8 15 -2 15 5 0 15 -7 22
-15z m-2372 -135 c-2 -28 -8 -36 -26 -38 -14 -2 -25 3 -29 14 -7 20 12 101 30
122 9 12 13 7 20 -24 4 -22 7 -55 5 -74z m2506 64 c26 -33 27 -38 15 -61 -12
-22 -18 -25 -59 -21 -25 3 -59 13 -75 24 -27 17 -27 19 -9 22 12 2 36 19 54
38 19 18 36 34 39 34 4 0 19 -16 35 -36z m-2037 -10 c6 -16 -12 -34 -34 -34
-14 0 -18 32 -6 43 12 12 34 7 40 -9z m4847 -43 c10 -56 7 -65 -18 -55 -12 5
-16 19 -16 61 0 71 21 67 34 -6z m-5963 -317 c-6 -181 -11 -431 -12 -556 0
-124 -3 -236 -6 -248 -5 -20 -7 -19 -21 11 -12 24 -13 34 -4 37 16 5 15 19 -3
25 -10 4 -16 -5 -23 -36 -7 -34 -10 -11 -18 128 -12 219 -8 368 11 530 27 214
70 453 82 442 2 -3 0 -153 -6 -333z m1525 325 c7 -12 -14 -59 -27 -59 -10 0
-21 49 -14 60 8 13 32 13 41 -1z m1454 -30 c0 -5 -4 -9 -10 -9 -5 0 -10 7 -10
16 0 8 5 12 10 9 6 -3 10 -10 10 -16z m1320 11 c0 -5 -5 -10 -11 -10 -5 0 -7
5 -4 10 3 6 8 10 11 10 2 0 4 -4 4 -10z m-1937 -101 c-26 -27 -53 -19 -53 15
0 36 30 50 55 25 19 -19 19 -19 -2 -40z m-742 -64 l-9 -60 -1 55 c-1 59 11
122 16 85 2 -11 -1 -47 -6 -80z m3073 43 l36 -42 -30 -12 c-24 -10 -30 -19
-30 -43 0 -16 -5 -33 -10 -36 -7 -4 -7 -12 0 -25 16 -29 12 -33 -12 -10 -12
11 -34 26 -50 32 -30 14 -44 40 -32 59 3 6 1 15 -5 19 -7 4 -10 17 -6 32 7 26
7 26 36 10 30 -17 38 -32 18 -32 -8 0 -8 -5 1 -15 7 -8 15 -13 19 -11 11 7 13
84 1 91 -17 10 -11 25 9 25 11 0 36 -19 55 -42z m-3709 12 c3 -5 1 -10 -4 -10
-6 0 -11 5 -11 10 0 6 2 10 4 10 3 0 8 -4 11 -10z m695 -91 c0 -11 -4 -18 -10
-14 -5 3 -7 12 -3 20 7 21 13 19 13 -6z m138 -180 c28 -10 30 -13 21 -31 -8
-14 -9 -55 -4 -124 7 -100 6 -104 -13 -104 -14 0 -24 10 -31 33 -6 17 -27 45
-46 61 -19 16 -35 35 -35 42 0 18 -80 54 -157 70 -71 15 -270 19 -289 6 -11
-7 -5 -128 17 -374 l11 -128 112 0 c112 0 197 16 239 43 13 8 31 31 42 51 12
21 26 35 35 34 12 -3 15 -28 18 -146 2 -133 1 -142 -16 -142 -11 0 -29 16 -43
37 -38 59 -107 82 -244 83 -124 0 -143 -6 -125 -39 14 -28 9 -139 -7 -153 -10
-8 -13 -6 -13 6 0 9 -4 16 -9 16 -13 0 -21 -91 -21 -247 0 -179 -4 -174 164
-177 96 -2 117 0 129 14 12 15 11 20 -9 39 -13 13 -24 31 -24 40 0 10 -3 21
-6 24 -13 13 -42 111 -37 124 8 21 18 13 83 -67 33 -41 65 -81 72 -89 10 -12
8 -17 -10 -29 -31 -20 -27 -32 9 -32 67 0 151 65 195 153 26 50 25 50 46 42
15 -6 15 -46 2 -192 l-6 -63 -61 0 c-99 0 -167 -11 -167 -26 0 -18 -9 -18 -30
1 -13 12 -69 15 -320 17 -275 3 -305 5 -308 20 -2 9 5 19 16 23 11 3 28 22 39
43 16 32 18 60 16 221 -1 174 -11 241 -34 241 -5 0 -9 -21 -9 -47 0 -105 -36
-202 -61 -162 -5 8 -9 6 -12 -7 -3 -12 -5 -7 -6 13 0 17 -6 35 -12 38 -6 4 -8
14 -5 22 4 9 2 21 -4 28 -20 24 1 520 23 542 4 3 7 -8 7 -26 0 -22 4 -31 13
-28 25 8 36 -28 37 -119 0 -98 16 -142 42 -116 17 17 25 380 9 434 -7 20 -23
46 -38 58 -17 13 -23 24 -17 30 5 5 181 13 404 18 217 5 395 10 396 10 1 1 15
-3 32 -9z m2772 -89 c0 -5 -2 -10 -4 -10 -3 0 -8 5 -11 10 -3 6 -1 10 4 10 6
0 11 -4 11 -10z m-2935 -113 c8 -10 13 -22 10 -27 -3 -5 -1 -11 5 -15 6 -3 1
-15 -13 -29 -12 -12 -30 -33 -39 -46 -17 -25 -17 -24 -18 50 0 41 -3 93 -6
115 l-6 40 25 -35 c14 -19 33 -43 42 -53z m2815 58 c0 -4 -6 -18 -14 -33 -8
-15 -16 -55 -18 -90 -3 -38 -12 -69 -22 -80 -9 -10 -13 -22 -10 -25 10 -9 -16
-38 -28 -31 -14 9 -4 63 21 111 11 23 21 52 21 63 0 29 27 90 39 90 6 0 11 -2
11 -5z m70 -55 c0 -5 -2 -10 -4 -10 -3 0 -8 5 -11 10 -3 6 -1 10 4 10 6 0 11
-4 11 -10z m-13 -62 c-3 -7 -5 -2 -5 12 0 14 2 19 5 13 2 -7 2 -19 0 -25z
m-23 -25 c-4 -16 -14 -34 -23 -41 -9 -7 -17 -17 -17 -22 -3 -23 -6 -23 -13 -1
-5 18 1 32 24 57 37 40 37 40 29 7z m1016 -218 c15 -108 15 -106 1 -175 -6
-30 -14 -71 -17 -90 -7 -41 -6 -40 -33 -45 -11 -2 -21 1 -21 7 0 6 -8 16 -17
23 -15 11 -15 17 -4 51 10 32 10 57 -4 148 -10 69 -13 111 -7 115 15 9 27 78
31 168 1 26 4 30 21 26 12 -3 21 0 22 8 0 8 4 -22 8 -66 4 -44 13 -120 20
-170z m-3612 155 c2 -5 11 -10 21 -10 18 0 67 -49 88 -89 19 -34 9 -37 -17 -4
-11 15 -35 33 -51 40 -28 12 -29 11 -29 -17 0 -39 -14 -38 -30 3 -30 77 -36
87 -51 87 -9 0 -22 6 -28 14 -11 13 -5 13 41 1 29 -8 54 -19 56 -25z m2596
-18 c-10 -15 -19 -21 -21 -15 -5 15 30 65 35 52 2 -5 -4 -22 -14 -37z m761
-55 c31 -54 33 -78 5 -52 -11 10 -20 24 -20 31 0 7 -4 14 -9 16 -4 2 -12 13
-15 26 -12 38 11 25 39 -21z m997 -134 c-10 -4 -10 -8 -1 -19 9 -11 8 -14 -5
-14 -9 0 -16 8 -16 20 0 13 6 20 18 19 11 0 12 -2 4 -6z m8 -63 c0 -5 -4 -10
-10 -10 -5 0 -10 5 -10 10 0 6 5 10 10 10 6 0 10 -4 10 -10z m-6103 -120 c1
-38 -2 -72 -7 -75 -4 -3 -10 29 -12 70 -2 46 1 75 7 75 6 0 11 -31 12 -70z
m2613 40 c11 -11 17 -20 13 -20 -5 0 -1 -5 7 -10 13 -9 13 -10 -1 -10 -14 0
-59 42 -59 55 0 12 21 4 40 -15z m-48 -58 c-7 -2 -10 -8 -6 -13 6 -10 -9 -13
-19 -3 -9 9 16 33 28 26 5 -3 4 -7 -3 -10z m-2794 -17 c-3 -3 -9 2 -12 12 -6
14 -5 15 5 6 7 -7 10 -15 7 -18z m-11 -112 c-3 -10 -5 -2 -5 17 0 19 2 27 5
18 2 -10 2 -26 0 -35z m3035 -51 c-7 -2 -12 -10 -12 -18 0 -17 -16 -19 -26 -3
-4 7 4 20 17 30 16 12 25 14 28 7 2 -7 -1 -14 -7 -16z m-3035 -14 c-3 -7 -5
-2 -5 12 0 14 2 19 5 13 2 -7 2 -19 0 -25z m6490 0 c-3 -7 -5 -2 -5 12 0 14 2
19 5 13 2 -7 2 -19 0 -25z m-2122 -36 c-3 -3 -13 -7 -23 -8 -9 -2 -19 -9 -21
-16 -7 -21 -68 -78 -82 -77 -11 0 -11 2 -1 6 6 2 10 9 7 13 -3 5 18 31 46 59
41 41 55 49 66 40 7 -7 11 -14 8 -17z m-155 -141 c0 -14 -18 -23 -31 -15 -8 4
-7 9 2 15 18 11 29 11 29 0z m-1716 -113 c29 -29 67 -63 85 -76 38 -29 41 -57
5 -66 -15 -4 -24 -9 -21 -12 3 -3 -2 -26 -10 -50 -14 -40 -14 -47 0 -62 9 -9
17 -24 19 -32 2 -8 12 -17 23 -20 11 -3 20 -12 20 -20 0 -25 -56 -12 -82 18
-12 15 -28 34 -35 42 -17 19 -22 77 -8 85 6 4 8 15 5 25 -4 13 1 22 15 30 29
15 25 54 -7 82 -16 13 -35 33 -44 43 -18 21 -34 65 -24 65 3 0 29 -24 59 -52z
m-2460 10 c36 -80 47 -134 44 -228 l-3 -95 -13 44 c-8 25 -22 94 -33 155 -26
155 -25 189 5 124z m2862 -50 c31 0 43 -3 40 -11 -3 -7 -9 -20 -12 -29 -4 -10
-10 -18 -15 -18 -5 0 -9 -9 -9 -20 0 -27 -31 -26 -75 3 -37 23 -43 45 -23 76
9 15 16 17 31 9 10 -5 39 -10 63 -10z m-931 -84 c30 -47 48 -62 64 -57 12 4
13 3 3 -4 -8 -6 -31 -4 -63 7 -50 17 -72 30 -51 30 7 0 12 11 12 25 0 32 13
32 35 -1z m4591 -148 c-4 -72 -11 -234 -16 -361 -4 -126 -13 -250 -19 -275 -6
-25 -14 -58 -18 -75 -5 -23 -9 -8 -14 60 -3 50 -12 164 -18 255 -17 225 -12
432 11 457 47 50 58 64 58 74 0 5 5 7 11 3 9 -5 10 -44 5 -138z m-3433 63 c-8
-8 -16 -8 -30 0 -16 9 -14 10 12 11 21 0 26 -3 18 -11z m-2919 -56 l37 -48 -6
-140 c-9 -221 -17 -347 -21 -342 -2 2 -17 40 -33 85 -28 76 -31 97 -37 271 -9
244 -5 257 60 174z m2829 -36 c11 -11 16 -22 10 -24 -12 -4 -82 38 -83 50 0 5
4 6 8 3 4 -2 14 -1 22 4 10 6 16 5 19 -2 2 -6 13 -20 24 -31z m412 -17 c3 -5
1 -10 -4 -10 -6 0 -11 5 -11 10 0 6 2 10 4 10 3 0 8 -4 11 -10z m-2029 -15
c10 -25 -7 -40 -23 -20 -7 11 -13 22 -13 27 0 14 30 9 36 -7z m2475 -19 c-7
-8 -41 -36 -77 -62 -35 -26 -64 -50 -64 -54 0 -5 -8 -11 -17 -15 -28 -10 57
73 104 103 24 15 43 30 43 35 0 4 5 7 11 7 8 0 8 -4 0 -14z m2489 -96 c0 -69
-6 -122 -20 -172 -11 -39 -21 -73 -24 -75 -9 -9 -28 105 -33 196 l-6 94 34 28
c19 16 37 29 42 29 4 0 7 -45 7 -100z m-3332 73 c3 -10 -14 -13 -65 -13 -64 0
-66 1 -43 14 30 17 102 16 108 -1z m342 -4 c0 -5 -17 -9 -39 -9 -22 0 -44 -6
-51 -15 -11 -14 -14 -14 -24 0 -12 17 -46 11 -46 -7 0 -6 7 -8 15 -4 9 3 15 0
15 -9 0 -22 -43 -22 -62 0 -13 16 -19 18 -29 8 -18 -18 -40 -16 -33 2 4 8 16
15 28 15 12 0 27 5 34 12 6 6 40 10 81 10 39 -1 73 3 76 8 7 11 35 2 35 -11z
m77 15 c-3 -3 -12 -4 -19 -1 -8 3 -5 6 6 6 11 1 17 -2 13 -5z m-3082 -75 c4
-12 4 -80 0 -153 -6 -126 -20 -206 -36 -206 -21 0 -52 393 -33 413 10 10 62
-31 69 -54z m2307 31 c4 -13 99 -30 118 -21 8 4 28 5 44 2 l28 -6 -29 -25
c-46 -39 -92 -63 -78 -41 10 17 -13 22 -29 6 -9 -9 -17 -11 -21 -5 -9 14 -22
12 -29 -5 -6 -17 30 -39 82 -48 18 -4 41 -14 50 -24 16 -15 13 -16 -42 -10
-49 5 -64 11 -87 36 -17 20 -34 29 -43 25 -23 -9 -20 -16 19 -47 41 -33 44
-47 10 -47 -14 0 -25 4 -25 8 0 4 -16 14 -36 21 -30 11 -38 11 -45 0 -5 -8 -9
-17 -9 -21 0 -5 -9 -8 -21 -8 -22 0 -96 66 -86 77 4 3 26 0 51 -7 48 -13 68
-8 59 15 -3 11 -1 13 10 9 8 -3 18 -1 22 5 3 6 -2 11 -12 11 -15 0 -16 2 -3
10 12 8 12 10 1 10 -8 0 -19 -7 -25 -16 -11 -14 -14 -14 -36 5 -21 16 -23 22
-11 33 11 10 14 10 18 1 6 -18 60 -16 66 1 4 11 -7 16 -45 21 -43 6 -54 4 -64
-10 -12 -16 -34 -13 -34 5 0 8 64 35 105 43 40 9 123 7 127 -3z m1328 1 c0
-16 -148 -142 -244 -208 -34 -23 -83 -62 -110 -88 -28 -26 -53 -42 -58 -37
-12 12 65 82 185 168 89 63 115 84 166 131 46 42 61 51 61 34z m-2335 -11 c5
-8 -62 -50 -80 -50 -16 0 -1 23 28 40 36 23 43 24 52 10z m1710 -10 c3 -5 1
-10 -4 -10 -6 0 -11 5 -11 10 0 6 2 10 4 10 3 0 8 -4 11 -10z m-198 -16 c-3
-3 -12 -4 -19 -1 -8 3 -5 6 6 6 11 1 17 -2 13 -5z m90 -26 c-3 -8 -6 -5 -6 6
-1 11 2 17 5 13 3 -3 4 -12 1 -19z m73 18 c0 -11 -19 -15 -25 -6 -3 5 1 10 9
10 9 0 16 -2 16 -4z m1035 -36 c10 -11 16 -20 13 -20 -3 0 -13 9 -23 20 -10
11 -16 20 -13 20 3 0 13 -9 23 -20z m-1230 0 c-3 -5 -12 -10 -18 -10 -7 0 -6
4 3 10 19 12 23 12 15 0z m-2640 -30 c0 -13 -5 -25 -11 -27 -13 -4 -26 35 -18
49 10 16 29 2 29 -22z m3179 7 c-4 -10 -229 -231 -298 -292 -134 -119 -242
-205 -258 -205 -6 0 -30 -14 -55 -30 -24 -17 -58 -37 -76 -46 -18 -9 -58 -36
-90 -60 -31 -24 -59 -44 -62 -44 -9 0 -155 -113 -155 -120 0 -4 21 -11 48 -15
26 -4 54 -10 62 -15 24 -12 100 -19 100 -9 0 5 -9 9 -20 9 -24 0 -70 20 -70
31 0 11 67 29 107 29 17 0 35 5 38 10 10 17 52 11 57 -8 6 -21 149 -82 223
-95 27 -5 120 -11 205 -14 132 -4 172 -1 267 17 69 14 114 28 117 36 6 16 -26
19 -70 5 -44 -13 -120 -28 -211 -42 -67 -10 -101 -10 -180 1 -54 7 -105 16
-113 20 -8 4 -33 13 -55 19 -51 15 -175 74 -175 83 0 9 112 -2 125 -13 6 -4
46 -18 90 -30 67 -19 104 -23 225 -23 80 0 170 6 200 12 30 6 93 14 140 18 78
6 84 6 71 -9 -19 -24 -6 -22 110 18 100 34 179 76 179 95 0 5 -19 0 -42 -10
-24 -11 -52 -20 -62 -20 -20 0 -20 0 0 15 19 14 19 14 -1 15 -19 0 -80 -27
-108 -47 -23 -18 -87 -31 -125 -26 -21 3 -88 -3 -148 -13 -133 -21 -302 -24
-364 -5 -66 19 -119 45 -114 53 8 13 59 9 72 -4 23 -23 544 -7 584 18 7 4 32
9 55 10 29 1 57 11 83 29 49 34 123 119 146 168 14 30 23 37 46 37 41 0 37
-36 -12 -101 -80 -107 -32 -82 57 29 l18 23 48 -45 c26 -25 47 -50 47 -56 0
-5 8 -10 18 -10 10 0 48 -33 84 -72 37 -40 86 -91 108 -113 22 -22 40 -46 40
-53 0 -42 -299 -163 -560 -227 -256 -62 -713 -95 -904 -66 -34 6 -97 15 -141
21 -75 11 -97 15 -207 40 -24 5 -68 14 -98 21 -74 16 -170 48 -198 66 -21 13
-26 12 -50 -3 -35 -23 -52 -40 -52 -53 0 -11 100 -61 172 -85 80 -26 252 -60
485 -95 39 -6 197 -11 351 -11 297 0 413 11 667 65 139 29 354 104 468 163 89
45 99 46 111 6 5 -18 -3 -24 -56 -48 -35 -16 -117 -48 -183 -73 -66 -24 -129
-48 -140 -53 -11 -5 -38 -14 -60 -21 -22 -6 -51 -15 -65 -19 -119 -37 -308
-65 -545 -81 -140 -9 -211 -8 -405 5 -129 8 -259 20 -287 26 -29 5 -74 14
-100 19 -57 11 -124 27 -173 40 -19 5 -46 13 -60 16 -14 4 -34 10 -45 15 -34
13 -98 42 -133 57 -50 24 -77 19 -126 -22 -25 -21 -46 -40 -46 -44 0 -13 24
-31 42 -31 10 0 26 -4 36 -9 38 -21 112 -51 124 -51 6 0 25 -4 42 -9 17 -5 51
-15 76 -21 25 -7 54 -16 65 -20 11 -5 34 -11 50 -15 17 -3 47 -10 68 -15 116
-30 189 -45 342 -69 76 -12 105 -20 95 -26 -39 -24 -247 6 -457 66 -21 6 -54
14 -73 19 -19 5 -51 13 -70 19 -19 5 -46 13 -60 16 -23 6 -36 11 -92 34 -13 5
-41 15 -63 22 -22 6 -58 20 -80 30 -86 39 -90 38 -161 -34 -39 -40 -64 -75
-64 -88 0 -18 -4 -21 -29 -16 -23 5 -34 0 -60 -27 -37 -38 -38 -49 -8 -63 141
-67 418 -178 507 -203 25 -6 55 -16 68 -21 13 -5 34 -9 47 -9 13 0 27 -4 30
-10 3 -5 21 -10 40 -10 19 0 37 -4 40 -10 3 -5 23 -10 44 -10 20 0 41 -4 46
-9 10 -9 47 -15 145 -27 25 -3 54 -9 65 -14 11 -5 40 -11 65 -14 149 -17 179
-27 180 -60 0 -4 -44 -6 -97 -2 -127 7 -179 15 -383 57 -25 5 -64 12 -88 15
-23 4 -45 11 -48 15 -3 5 -16 9 -29 9 -13 0 -34 4 -47 9 -13 5 -43 14 -68 21
-25 7 -54 16 -65 20 -11 4 -36 13 -55 20 -44 15 -63 23 -122 49 -26 12 -50 21
-53 21 -7 0 -135 58 -175 79 -19 11 -51 28 -71 39 -34 19 -39 19 -60 5 -45
-30 -109 -97 -109 -114 0 -10 -17 -25 -42 -37 -24 -12 -59 -35 -78 -53 -19
-18 -47 -43 -62 -57 -14 -13 -32 -21 -38 -17 -12 7 96 124 225 243 39 36 71
70 73 77 2 7 -14 20 -35 30 -68 33 -177 110 -160 113 18 4 24 22 7 22 -6 0
-19 -6 -30 -12 -14 -9 -23 -10 -28 -3 -4 6 -24 19 -45 30 -67 35 -296 234
-477 415 -163 162 -278 295 -375 430 -22 30 -44 60 -50 65 -15 14 -65 93 -65
103 0 4 -14 24 -31 45 -31 37 -47 93 -35 122 5 13 17 4 55 -42 59 -71 84 -118
78 -148 -2 -15 0 -22 8 -19 15 6 36 -14 77 -74 17 -26 52 -72 78 -102 25 -30
60 -75 78 -100 51 -74 441 -463 517 -516 39 -27 93 -66 120 -86 28 -21 55 -38
62 -38 6 0 13 -3 15 -8 2 -4 28 -23 58 -42 30 -19 57 -37 60 -40 3 -3 38 -21
78 -40 41 -19 77 -41 82 -50 7 -12 24 1 82 60 40 42 95 93 122 115 27 22 61
50 75 63 14 13 52 45 84 70 31 25 57 49 57 53 0 5 -16 9 -35 9 -36 0 -247 102
-290 140 -11 9 -65 47 -120 83 -130 86 -450 406 -576 577 -146 197 -147 200
-105 200 18 0 40 -21 94 -92 38 -51 97 -129 131 -173 100 -131 432 -455 465
-455 3 0 25 -14 48 -30 127 -91 280 -178 372 -211 l50 -19 34 26 c43 33 42 34
-118 115 -139 70 -326 187 -410 258 -30 25 -68 57 -85 71 -37 31 -148 142
-195 195 -133 151 -240 288 -240 306 0 9 48 18 70 12 11 -3 42 -40 70 -83 68
-104 269 -301 404 -395 31 -22 75 -56 96 -76 39 -34 120 -85 120 -75 0 6 -186
156 -193 156 -24 0 -237 220 -320 330 -74 98 -90 127 -82 140 14 23 37 6 92
-66 67 -88 130 -155 190 -201 39 -31 75 -48 42 -20 -24 19 -122 146 -168 216
-32 49 -39 66 -29 72 32 21 51 6 130 -100 77 -102 252 -282 324 -332 24 -17
55 -41 69 -55 30 -30 50 -33 35 -4 -6 11 -14 20 -18 20 -4 0 -45 36 -92 80
-47 44 -91 78 -97 75 -8 -3 -13 4 -13 19 0 13 -9 34 -21 47 -66 75 -168 237
-162 256 8 23 49 -8 71 -52 11 -23 54 -83 95 -131 129 -154 154 -165 75 -34
-82 136 -109 191 -103 211 4 11 11 19 16 19 11 0 69 -89 69 -106 0 -7 3 -14 8
-16 4 -1 23 -34 42 -73 23 -47 57 -92 102 -137 46 -45 68 -74 68 -90 0 -15 16
-39 40 -63 22 -21 40 -36 40 -33 0 3 -38 69 -84 146 -113 187 -133 227 -147
290 -13 62 -4 78 35 68 20 -5 26 -14 31 -44 18 -115 105 -302 205 -437 20 -27
41 -63 47 -80 5 -16 25 -40 44 -52 19 -12 46 -31 62 -43 42 -33 32 -7 -21 52
-26 29 -56 67 -67 83 -34 53 -101 188 -130 265 -16 41 -43 107 -61 146 -28 61
-30 71 -14 67 36 -10 88 -62 93 -95 20 -124 64 -250 108 -314 44 -64 163 -189
205 -215 19 -11 41 -18 49 -15 8 3 15 1 15 -4 0 -6 5 -10 12 -10 6 0 -28 38
-75 85 -47 47 -89 95 -92 105 -4 11 -9 20 -13 20 -7 0 -71 121 -90 170 -32 81
-41 160 -19 160 23 0 37 -23 37 -59 0 -45 22 -118 57 -190 50 -101 241 -277
269 -248 7 6 -27 67 -37 67 -28 0 -262 371 -244 388 8 8 75 -26 79 -40 25
-102 68 -181 136 -254 37 -40 100 -83 100 -69 0 8 -40 86 -51 99 -15 17 -52
77 -79 126 -13 25 -33 53 -45 62 -20 17 -20 17 0 17 35 0 90 -33 87 -52 -1 -9
6 -22 18 -29 13 -8 20 -23 20 -44 0 -20 9 -39 26 -55 14 -13 35 -41 45 -61 24
-47 53 -52 47 -8 -4 27 -2 30 24 30 27 0 37 -13 19 -25 -16 -9 -72 -97 -69
-106 2 -5 32 12 67 36 35 24 109 70 165 102 56 31 130 82 166 112 90 75 184
157 250 217 121 111 141 128 187 159 27 18 49 33 50 34 1 1 0 -5 -3 -12z
m-891 -14 c-7 -2 -19 -2 -25 0 -7 3 -2 5 12 5 14 0 19 -2 13 -5z m1159 -115
c-27 -46 -60 -91 -73 -100 -36 -27 -143 -68 -152 -59 -5 5 1 31 13 59 20 47
32 57 138 127 64 42 118 72 120 66 2 -6 -19 -48 -46 -93z m511 78 c14 -13 34
-41 45 -63 11 -22 28 -45 36 -52 14 -12 16 -6 16 53 0 37 4 66 10 66 6 0 10
-32 10 -76 0 -42 4 -93 9 -113 5 -20 15 -63 21 -96 7 -33 18 -85 25 -115 12
-54 13 -55 47 -53 34 2 36 1 41 -40 7 -43 1 -54 -49 -83 -17 -10 -16 -12 11
-25 19 -9 33 -26 39 -48 9 -30 7 -36 -12 -49 -26 -17 -29 -42 -6 -42 14 0 14
-3 3 -16 -22 -27 -48 20 -48 88 0 31 -4 65 -10 76 -6 12 -11 35 -11 53 0 17
-5 50 -11 73 -6 22 -14 57 -19 76 -5 19 -14 55 -20 80 -6 25 -16 63 -22 85
-17 65 -30 87 -90 150 -32 33 -58 68 -58 78 0 23 12 21 43 -7z m-1158 4 c3 -6
-1 -7 -9 -4 -18 7 -21 14 -7 14 6 0 13 -4 16 -10z m-2535 -9 c0 -17 -52 -51
-76 -51 -34 0 -30 12 14 36 41 24 62 29 62 15z m234 -54 c18 -29 39 -59 47
-67 8 -8 41 -53 73 -100 72 -103 123 -167 193 -240 61 -63 71 -95 18 -54 -19
14 -35 30 -35 35 0 4 -10 19 -22 32 -60 63 -135 152 -183 218 -73 100 -145
212 -145 225 0 23 17 7 54 -49z m2440 48 c-4 -8 -11 -15 -16 -15 -6 0 -5 6 2
15 7 8 14 15 16 15 2 0 1 -7 -2 -15z m649 -16 c-22 -36 -97 -109 -114 -109
-12 0 26 56 74 108 41 43 65 44 40 1z m581 11 c14 0 26 -4 26 -10 0 -5 -16
-10 -35 -10 -39 0 -43 -7 -18 -25 14 -11 13 -13 -10 -17 -24 -5 -27 -1 -33 28
-8 42 1 57 26 44 10 -5 30 -10 44 -10z m-1764 -10 c0 -5 7 -10 15 -10 8 0 15
-4 15 -10 0 -11 -11 -13 -34 -4 -17 7 -22 34 -6 34 6 0 10 -4 10 -10z m2363
-18 c10 -3 9 -32 -1 -32 -5 0 -24 -21 -42 -47 -19 -27 -36 -50 -39 -53 -4 -3
-22 -27 -41 -55 -47 -69 -51 -73 -89 -111 -19 -19 -31 -38 -27 -42 8 -7 156
145 156 159 0 5 10 19 23 33 33 37 49 57 77 99 22 33 30 37 68 37 23 0 42 -4
42 -8 0 -67 -497 -602 -559 -602 -12 0 -15 117 -5 194 6 41 11 49 40 61 18 7
46 31 61 53 15 21 47 54 71 73 47 37 135 149 151 192 10 26 9 27 -9 17 -11 -6
-27 -24 -35 -40 -31 -59 -246 -290 -270 -290 -2 0 -3 78 -2 173 l2 172 43 3
c25 2 42 -1 42 -7 0 -6 -4 -11 -10 -11 -27 0 -49 -99 -24 -107 11 -4 44 65 44
91 0 29 26 46 69 46 23 0 41 -3 41 -6 0 -4 -38 -44 -85 -90 -79 -78 -106 -124
-72 -124 13 0 47 34 47 48 0 4 19 28 43 53 23 25 58 64 77 86 l35 40 85 -2
c47 -1 88 -3 93 -3z m689 -50 c28 -16 37 -45 17 -57 -12 -8 -116 53 -124 73
-4 12 2 13 36 8 23 -4 55 -14 71 -24z m-1749 -2 c-3 -11 -9 -17 -14 -14 -14 8
-10 34 5 34 9 0 12 -7 9 -20z m1948 -32 c-25 -83 -50 -137 -89 -195 -21 -32
-46 -72 -55 -89 -25 -49 -174 -252 -252 -344 -82 -96 -307 -318 -375 -370 -25
-19 -47 -37 -50 -40 -3 -4 -32 -25 -65 -48 -33 -23 -91 -64 -130 -90 -128 -90
-407 -240 -540 -292 -11 -4 -31 -12 -45 -18 -14 -6 -43 -16 -65 -23 -22 -6
-48 -15 -57 -20 -10 -5 -27 -9 -37 -9 -11 0 -23 -4 -26 -10 -3 -5 -19 -10 -35
-10 -16 0 -32 -4 -35 -10 -3 -5 -17 -10 -30 -10 -13 0 -27 -4 -30 -10 -3 -5
-21 -10 -40 -10 -19 0 -36 -4 -39 -9 -3 -5 -20 -11 -38 -14 -39 -7 -108 -21
-203 -42 -38 -8 -106 -15 -150 -15 l-79 0 20 20 c12 12 45 25 79 31 33 6 80
15 105 20 25 6 65 14 90 19 125 25 185 40 325 80 88 25 141 43 149 51 6 5 17
9 25 9 8 0 41 13 75 29 34 15 72 32 86 36 111 34 388 205 645 398 122 92 265
229 374 357 25 30 76 90 112 132 59 69 239 327 239 343 0 4 13 25 28 48 15 23
33 54 40 70 30 68 37 77 49 73 7 -3 15 -1 19 5 14 23 16 -3 5 -43z m-5305 30
c5 -7 -8 -25 -31 -45 -30 -25 -47 -33 -70 -31 -44 4 -37 25 20 58 55 33 70 36
81 18z m3430 -12 c11 -29 -15 -52 -83 -74 -38 -12 -77 -22 -85 -22 -9 0 -18
-6 -20 -12 -3 -8 -19 -12 -44 -10 -37 2 -38 2 -19 -13 19 -16 17 -16 -27 -10
-51 8 -63 0 -25 -15 16 -7 7 -8 -33 -4 -52 5 -54 4 -35 -11 19 -16 17 -16 -29
-9 -43 6 -48 5 -43 -10 6 -14 1 -15 -33 -10 -31 5 -40 3 -40 -8 0 -11 -9 -13
-32 -11 -32 4 -32 4 -13 -13 19 -16 18 -16 -32 -10 -31 4 -54 2 -58 -4 -3 -5
-24 -10 -45 -10 -21 0 -42 -4 -45 -10 -3 -5 -20 -9 -38 -8 -18 1 -48 -1 -67
-5 -19 -4 -28 -4 -20 0 8 3 17 9 20 13 3 3 22 16 43 29 20 12 37 28 37 33 0 6
3 9 6 6 3 -4 0 -16 -6 -28 -17 -32 -4 -37 25 -10 20 19 27 21 40 10 13 -11 19
-10 34 4 10 9 36 19 57 22 38 6 69 15 129 39 17 7 50 18 75 25 25 7 56 16 70
20 27 8 97 28 145 41 93 24 119 35 143 60 32 31 41 34 48 15z m404 4 c0 -13
-34 -30 -59 -30 -28 0 -27 28 2 33 41 8 57 7 57 -3z m-977 -47 c-7 -2 -13 -12
-13 -21 0 -20 -69 -114 -87 -120 -22 -7 -14 18 19 61 52 67 71 87 82 86 6 0 5
-3 -1 -6z m694 1 c-3 -3 -12 -4 -19 -1 -8 3 -5 6 6 6 11 1 17 -2 13 -5z m293
-34 c0 -17 -34 -29 -53 -19 -28 16 -20 29 18 29 19 0 35 -4 35 -10z m1222 -54
c28 -42 -11 -52 -77 -18 -40 20 -55 33 -55 49 0 12 6 23 13 26 14 5 108 -40
119 -57z m-273 32 c-21 -39 -91 -141 -133 -193 -111 -136 -219 -255 -259 -285
-24 -19 -57 -52 -73 -73 -53 -71 -234 -213 -234 -184 0 14 42 55 140 137 71
59 99 87 237 236 81 88 156 179 218 264 68 95 90 120 102 120 11 0 11 -4 2
-22z m-4712 -5 c4 -12 -93 -93 -113 -93 -26 0 -23 17 9 47 62 58 95 73 104 46z
m4505 -31 c-7 -2 -12 -8 -12 -12 0 -5 -13 -24 -29 -42 -16 -18 -62 -71 -102
-117 -192 -221 -388 -401 -437 -401 -18 0 -14 27 6 42 80 57 217 188 321 308
99 115 171 190 181 190 5 0 10 3 12 8 7 17 63 50 67 39 2 -6 -1 -13 -7 -15z
m-4452 -59 c0 -20 -75 -93 -95 -93 -28 0 -15 28 31 69 51 45 64 50 64 24z
m3553 -105 c59 -190 72 -258 47 -258 -5 0 -10 4 -10 9 0 4 -17 28 -38 52 -59
70 -63 82 -58 199 5 122 4 110 15 110 5 0 25 -51 44 -112z m1251 89 c49 -28
65 -52 48 -69 -14 -14 -52 3 -106 46 -53 44 -9 62 58 23z m-1637 7 c-3 -3 -12
-4 -19 -1 -8 3 -5 6 6 6 11 1 17 -2 13 -5z m-74 -25 c-8 -8 -16 -8 -30 0 -16
9 -14 10 12 11 21 0 26 -3 18 -11z m635 -38 c2 -11 -1 -21 -6 -21 -26 0 -42
14 -42 36 0 20 3 22 23 15 12 -4 23 -18 25 -30z m-1936 2 c10 -9 18 -23 18
-31 0 -12 -6 -10 -25 8 -38 35 -31 58 7 23z m945 -39 c-3 -3 -12 -4 -19 -1 -8
3 -5 6 6 6 11 1 17 -2 13 -5z m1983 -26 c52 -35 63 -49 54 -73 -12 -30 -134
49 -134 87 0 26 24 22 80 -14z m-2063 6 c-3 -3 -12 -4 -19 -1 -8 3 -5 6 6 6
11 1 17 -2 13 -5z m357 -19 c-10 -8 -28 -14 -39 -14 -18 0 -17 1 5 14 34 20
60 20 34 0z m-744 -5 c0 -5 -5 -10 -11 -10 -5 0 -7 5 -4 10 3 6 8 10 11 10 2
0 4 -4 4 -10z m790 -30 c-18 -33 -106 -97 -165 -119 -49 -18 -63 -19 -137 -10
-87 10 -148 27 -148 41 0 5 19 5 43 1 23 -5 78 -8 122 -8 69 0 89 5 145 31 36
17 78 43 93 58 35 32 63 36 47 6z m1588 -55 c43 -31 56 -65 25 -65 -10 0 -38
17 -62 38 -32 28 -43 43 -38 56 7 19 10 18 75 -29z m-4458 7 c0 -18 -73 -92
-91 -92 -29 0 -23 20 18 62 34 34 73 51 73 30z m4980 -17 c9 -10 9 -15 1 -15
-6 0 -11 -6 -11 -13 0 -23 -21 -37 -41 -26 -20 10 -15 36 10 56 21 16 26 16
41 -2z m-3000 -24 c0 -5 -15 -11 -32 -14 -18 -3 -53 -10 -78 -16 -25 -5 -63
-12 -85 -16 l-40 -6 39 20 c22 12 53 21 70 21 17 0 38 5 46 10 19 12 80 13 80
1z m2392 -58 c39 -38 49 -63 24 -63 -15 0 -86 74 -86 90 0 20 25 9 62 -27z
m-775 -40 c-3 -10 -5 -2 -5 17 0 19 2 27 5 18 2 -10 2 -26 0 -35z m1323 13 c0
-3 -4 -8 -10 -11 -5 -3 -10 -1 -10 4 0 6 5 11 10 11 6 0 10 -2 10 -4z m134
-12 c21 -21 20 -40 -4 -64 -27 -27 -42 -25 -68 10 -28 37 -27 44 1 58 32 15
53 14 71 -4z m-4821 -44 c50 -55 27 -154 -39 -166 -45 -8 -70 2 -100 41 -20
26 -25 43 -22 76 3 37 8 47 38 67 44 30 84 24 123 -18z m4627 30 c0 -5 -4 -10
-10 -10 -5 0 -10 5 -10 10 0 6 5 10 10 10 6 0 10 -4 10 -10z m-597 -35 c31
-31 37 -43 37 -79 0 -60 -36 -96 -95 -96 -30 0 -47 6 -62 23 -26 28 -37 76
-24 110 10 25 75 77 97 77 6 0 27 -16 47 -35z m-4713 -20 c14 -16 10 -18 -14
-9 -9 3 -16 10 -16 15 0 14 16 11 30 -6z m937 -62 c59 -40 124 -87 197 -144
25 -20 86 -55 174 -101 34 -17 62 -36 62 -40 0 -15 -31 -8 -78 18 -26 15 -81
45 -122 67 -41 22 -86 50 -100 61 -14 12 -45 35 -70 51 -68 42 -140 105 -140
121 0 20 1 19 77 -33z m4331 22 c-12 -26 -52 -37 -42 -11 4 10 32 29 51 35 2
1 -3 -10 -9 -24z m-5152 -80 c18 -44 18 -45 -6 -45 -28 0 -44 34 -28 60 7 11
14 20 16 20 2 0 10 -16 18 -35z m5068 -1 c17 -16 14 -26 -12 -56 -18 -22 -32
-22 -57 -4 -18 13 -18 14 4 45 25 35 42 39 65 15z m-4298 -89 c7 -18 -12 -69
-32 -86 -11 -9 -18 -8 -29 1 -22 18 -18 40 12 72 30 32 41 35 49 13z m3588
-24 c23 -24 36 -46 34 -57 -6 -33 -40 -21 -75 25 -26 34 -31 46 -22 57 16 20
21 18 63 -25z m603 -18 c4 -11 -6 -27 -31 -50 -53 -49 -78 -23 -35 38 22 32
56 38 66 12z m-4047 -53 c19 -36 -32 -106 -67 -93 -19 7 -16 41 8 79 23 39 43
43 59 14z m3311 -2 c6 -13 23 -36 38 -51 l26 -28 -25 -19 c-14 -11 -28 -20
-31 -20 -11 0 -69 95 -69 113 0 31 45 35 61 5z m-3171 -88 c0 -22 -64 -90 -85
-90 -27 0 -25 19 7 64 22 32 39 46 55 46 16 0 23 -6 23 -20z m3047 -29 c24
-36 32 -96 11 -89 -6 2 -16 13 -22 24 -6 10 -19 31 -28 46 -10 14 -18 34 -18
43 0 27 32 13 57 -24z m-347 8 c-32 -21 -97 -54 -140 -69 -25 -10 -63 -25 -85
-34 -70 -31 -79 -34 -135 -46 -30 -7 -63 -16 -72 -21 -10 -5 -31 -9 -47 -9
-17 0 -33 -4 -36 -10 -3 -5 -21 -10 -40 -10 -19 0 -36 -4 -39 -9 -3 -4 -38
-11 -78 -15 -40 -3 -90 -9 -110 -12 -21 -3 -46 -3 -55 1 -25 10 138 51 237 59
16 2 151 42 188 57 13 5 32 9 43 9 10 0 27 4 37 9 20 10 94 36 167 58 28 8 57
18 65 21 23 9 94 29 105 31 6 0 3 -4 -5 -10z m1000 -61 c0 -12 -18 -30 -51
-52 -25 -15 -28 -16 -43 -1 -19 20 -10 43 30 74 25 20 28 20 46 5 10 -10 18
-21 18 -26z m-810 -49 c16 -31 18 -45 10 -53 -9 -8 -19 -2 -41 24 -34 40 -38
70 -10 70 12 0 27 -15 41 -41z m-2582 -43 c5 -39 -24 -96 -48 -96 -27 0 -26
28 2 85 24 50 41 54 46 11z m2433 -23 c19 -46 19 -73 -1 -73 -13 0 -62 98 -55
110 14 22 37 7 56 -37z m-3249 -2 c32 -29 33 -29 14 -50 -23 -26 -34 -26 -63
-2 -23 20 -28 37 -17 65 9 24 30 20 66 -13z m4039 7 c25 -28 24 -30 -12 -50
-39 -23 -51 -23 -67 2 -11 18 -9 24 14 45 33 31 41 31 65 3z m-1854 -24 c65
-36 69 -39 98 -91 84 -150 -49 -372 -224 -373 -85 0 -203 91 -242 188 -20 50
-21 58 -9 106 7 28 19 63 27 78 21 43 73 98 92 98 9 0 21 4 27 9 30 30 166 21
231 -15z m-1227 11 c18 -21 -15 -115 -40 -115 -10 0 -20 6 -23 13 -7 21 28
117 43 117 4 0 13 -7 20 -15z m2138 -40 c25 -52 28 -75 8 -75 -15 0 -59 97
-50 111 10 17 20 9 42 -36z m-1971 -20 c3 -9 -4 -39 -15 -68 -15 -40 -24 -51
-38 -49 -31 6 -44 22 -34 40 47 91 73 113 87 77z m1850 -16 c7 -14 14 -41 15
-60 3 -31 0 -34 -25 -37 -19 -2 -29 2 -33 15 -3 10 -10 26 -15 35 -13 25 -11
65 4 71 23 10 42 2 54 -24z m-143 -54 c28 -59 17 -95 -18 -60 -17 17 -38 84
-30 96 9 15 32 -2 48 -36z m1066 30 c16 -19 2 -37 -47 -60 -29 -14 -37 -15
-44 -4 -16 25 -9 48 19 63 35 19 56 20 72 1z m-3744 -32 c-3 -8 2 -13 14 -13
11 0 20 -5 20 -11 0 -16 -52 -6 -63 12 -6 9 -7 24 -3 34 5 14 9 15 22 5 8 -7
13 -19 10 -27z m1134 8 c19 -37 -18 -127 -38 -94 -4 7 -16 11 -27 10 -26 -3
-23 33 7 73 25 35 43 38 58 11z m1401 -55 c24 -52 24 -66 0 -66 -25 0 -28 6
-37 70 -8 63 7 62 37 -4z m-153 5 c8 -5 14 -29 15 -57 2 -43 -1 -49 -20 -52
-18 -3 -24 5 -37 49 -8 29 -13 56 -10 61 7 10 35 10 52 -1z m-1028 -39 c0 -44
-17 -67 -36 -51 -7 6 -11 16 -9 22 19 54 26 67 35 67 5 0 10 -17 10 -38z m134
-9 c-7 -51 -25 -80 -43 -69 -20 12 14 116 37 116 10 0 12 -11 6 -47z m2084 25
c30 -30 -8 -74 -59 -66 -38 5 -37 41 3 60 41 21 41 21 56 6z m-155 -91 c3 -8
2 -18 -1 -24 -12 -19 -142 -75 -158 -69 -23 9 -12 30 22 41 16 5 47 22 69 37
45 31 61 34 68 15z m-3076 -19 c35 -13 41 -26 21 -46 -29 -29 -98 -6 -98 33 0
29 23 33 77 13z m162 -67 c18 -13 22 -23 16 -40 -6 -20 -12 -22 -38 -17 -41 8
-49 18 -41 50 7 31 29 33 63 7z m2677 -37 c9 -33 -6 -46 -47 -42 -29 2 -34 7
-34 28 0 17 7 26 25 31 43 12 49 10 56 -17z m-2512 -35 c33 -14 46 -26 44 -37
-7 -34 -51 -25 -117 24 -6 5 8 34 17 34 5 0 31 -9 56 -21z m2350 -25 c10 -26
7 -33 -24 -49 -42 -22 -59 -19 -66 12 -5 19 -2 30 11 40 26 18 71 17 79 -3z
m-2159 -24 c20 -7 26 -16 23 -33 -3 -19 -8 -22 -43 -19 -48 4 -59 13 -50 41 7
23 29 26 70 11z m1990 -40 c0 -15 -36 -30 -102 -45 -30 -6 -33 -4 -33 17 0 20
7 26 43 35 57 14 92 12 92 -7z m-1827 -12 c17 -17 15 -57 -3 -64 -22 -9 -62 3
-68 20 -3 8 -3 24 0 35 6 24 51 29 71 9z m1605 -38 c4 -16 -2 -24 -30 -35 -62
-26 -95 -15 -73 24 9 18 29 25 81 30 9 0 19 -8 22 -19z m-1448 -4 c60 -25 36
-58 -34 -49 -43 6 -58 21 -47 48 7 19 37 19 81 1z m195 -41 c22 -27 4 -45 -45
-45 -47 0 -63 14 -51 45 7 20 79 20 96 0z m1055 -10 c0 -15 -8 -21 -35 -25
-45 -8 -60 -2 -60 20 0 13 9 20 28 23 49 8 67 3 67 -18z m-175 -15 c0 -26 -32
-42 -78 -38 -31 2 -36 6 -34 23 5 27 20 35 70 35 35 0 42 -3 42 -20z m-706 4
c9 -3 16 -15 16 -25 0 -16 -8 -19 -49 -19 -52 0 -65 8 -55 34 6 16 57 22 88
10z m180 -10 c9 -3 16 -17 16 -30 0 -22 -4 -24 -50 -24 -46 0 -50 2 -50 23 0
13 3 27 7 30 8 9 56 9 77 1z m181 -4 c3 -6 3 -19 0 -30 -5 -16 -15 -20 -51
-20 -42 0 -44 1 -44 30 0 29 2 30 44 30 25 0 48 -5 51 -10z m169 -5 c8 -22
-22 -45 -60 -45 -36 0 -51 17 -40 45 8 21 92 21 100 0z"/>
<path d="M3980 6101 c-20 -6 -22 -8 -8 -13 20 -8 58 1 58 13 0 10 -14 10 -50
0z"/>
<path d="M3525 6033 c-30 -6 -99 -34 -105 -41 -3 -4 -37 -28 -77 -54 -86 -57
-120 -99 -123 -153 -5 -76 7 -89 29 -29 13 36 61 74 94 74 12 0 23 -12 30 -30
6 -16 14 -30 17 -30 3 0 16 21 29 46 14 25 42 60 63 78 22 17 53 43 71 58 30
26 32 26 35 7 2 -11 -2 -27 -10 -36 -11 -14 -10 -15 10 -9 16 5 22 3 22 -8 0
-8 -4 -18 -10 -21 -5 -3 -9 -28 -8 -56 0 -40 4 -49 15 -45 9 4 17 -2 20 -14 6
-23 21 -22 37 2 11 18 -6 84 -32 125 -8 12 -14 43 -14 69 -1 43 -4 47 -34 60
-18 8 -35 13 -36 13 -2 -1 -12 -3 -23 -6z m111 -201 c-9 -8 -26 10 -26 26 1
15 2 15 15 -2 8 -11 13 -21 11 -24z"/>
<path d="M4815 5900 c-3 -5 3 -10 15 -10 12 0 18 5 15 10 -3 6 -10 10 -15 10
-5 0 -12 -4 -15 -10z"/>
<path d="M3882 5867 c-12 -13 -22 -29 -22 -36 0 -20 58 -89 81 -96 30 -10 79
13 79 37 0 13 14 25 47 39 61 26 46 44 -35 41 -46 -2 -64 2 -84 18 -33 25 -40
25 -66 -3z"/>
<path d="M4876 5864 c-7 -17 -39 -18 -65 -2 -14 8 -29 8 -64 0 -25 -7 -53 -9
-61 -6 -10 4 -16 1 -16 -8 0 -7 -9 -21 -20 -31 -12 -10 -20 -29 -20 -47 0 -27
3 -30 27 -28 24 3 28 -1 33 -32 8 -47 15 -57 52 -76 17 -9 42 -27 55 -40 39
-39 90 -55 163 -52 l65 3 -3 85 c-3 69 -7 88 -23 102 -23 19 -25 38 -4 38 23
0 6 29 -27 46 -19 10 -28 21 -24 30 3 8 4 14 3 14 -1 0 -16 4 -34 9 -24 7 -33
6 -37 -5z"/>
<path d="M3136 5764 c-13 -33 -6 -44 24 -44 31 0 51 24 34 40 -20 18 -52 21
-58 4z"/>
<path d="M3695 5768 c-11 -6 -35 -25 -53 -42 -18 -17 -35 -30 -38 -28 -12 7
-54 1 -54 -8 0 -6 6 -10 13 -8 7 2 29 -6 49 -16 42 -23 74 -17 111 20 33 32
39 94 10 94 -10 0 -27 -6 -38 -12z"/>
<path d="M3046 5753 c-16 -9 -42 -17 -58 -18 -15 -1 -36 -9 -46 -18 -13 -12
-21 -14 -29 -6 -8 8 -17 5 -32 -10 -12 -12 -30 -21 -41 -21 -13 0 -24 -10 -31
-27 -8 -22 -12 -24 -19 -13 -7 12 -16 6 -44 -25 -32 -36 -35 -38 -36 -17 0 24
-20 32 -20 8 0 -19 -57 -61 -92 -70 -28 -6 -36 -30 -29 -76 2 -8 2 -30 2 -47
-1 -43 16 -42 59 2 19 20 53 47 76 60 23 14 44 31 47 39 3 7 34 35 68 62 l63
48 81 1 c84 0 115 13 115 47 0 13 8 18 28 18 15 0 23 4 17 8 -5 4 -10 21 -10
37 0 36 -24 42 -69 18z"/>
<path d="M4463 5699 c-7 -7 -13 -21 -13 -30 0 -20 38 -51 52 -43 14 9 9 41 -9
63 -15 18 -20 20 -30 10z"/>
<path d="M3196 5683 c-6 -14 -5 -15 5 -6 7 7 10 15 7 18 -3 3 -9 -2 -12 -12z"/>
<path d="M4560 5550 c0 -5 18 -10 40 -10 22 0 40 5 40 10 0 6 -18 10 -40 10
-22 0 -40 -4 -40 -10z"/>
<path d="M2828 5523 c-31 -35 -39 -60 -24 -72 11 -9 25 -7 60 11 48 24 56 40
32 64 -20 19 -50 18 -68 -3z"/>
<path d="M2532 5480 c0 -14 2 -19 5 -12 2 6 2 18 0 25 -3 6 -5 1 -5 -13z"/>
<path d="M3220 5190 c0 -5 5 -10 11 -10 5 0 7 5 4 10 -3 6 -8 10 -11 10 -2 0
-4 -4 -4 -10z"/>
<path d="M3365 5108 c-27 -5 -62 -9 -77 -9 -33 0 -43 -12 -23 -29 8 -7 15 -19
15 -26 0 -19 17 -17 24 3 6 13 12 9 32 -21 35 -51 61 -46 93 17 23 47 23 78
-1 76 -7 -1 -35 -6 -63 -11z"/>
<path d="M3463 4893 c9 -2 23 -2 30 0 6 3 -1 5 -18 5 -16 0 -22 -2 -12 -5z"/>
<path d="M4995 4840 c-3 -5 -1 -10 4 -10 6 0 11 5 11 10 0 6 -2 10 -4 10 -3 0
-8 -4 -11 -10z"/>
<path d="M4213 4553 c9 -2 23 -2 30 0 6 3 -1 5 -18 5 -16 0 -22 -2 -12 -5z"/>
<path d="M3865 4540 c3 -5 8 -10 11 -10 2 0 4 5 4 10 0 6 -5 10 -11 10 -5 0
-7 -4 -4 -10z"/>
<path d="M3495 4503 c-48 -10 -77 -28 -110 -68 -19 -24 -35 -51 -35 -60 0 -9
-5 -26 -12 -38 -41 -78 28 -180 165 -246 74 -35 117 -39 140 -13 25 27 21 51
-10 64 l-28 11 33 7 c41 10 51 18 32 30 -14 9 -13 11 10 14 6 0 15 7 19 15 5
7 14 10 20 7 6 -4 11 -2 11 3 0 17 18 13 58 -14 20 -14 40 -25 44 -25 13 0 9
38 -4 43 -10 4 -10 6 0 6 8 1 16 -8 19 -19 3 -11 12 -20 20 -20 10 0 13 -6 9
-16 -3 -9 -6 -30 -6 -47 -1 -31 -1 -31 -16 -12 -14 19 -16 19 -25 3 -11 -20
-39 -24 -56 -7 -18 18 -33 0 -33 -39 0 -43 13 -68 29 -58 6 4 16 -4 22 -18 7
-14 20 -28 31 -31 10 -4 18 -10 18 -15 0 -5 13 -7 29 -5 25 3 30 -1 34 -24 3
-16 26 -52 51 -81 26 -30 46 -57 46 -62 0 -4 5 -8 10 -8 6 0 10 10 10 23 0 22
0 22 13 -3 25 -48 48 -116 34 -97 -22 27 -30 20 -23 -18 6 -28 4 -34 -8 -29
-11 4 -16 -4 -21 -33 -9 -61 -63 -160 -111 -202 -56 -49 -184 -111 -230 -111
-61 0 -40 -22 86 -86 31 -16 47 -19 52 -11 7 11 19 7 80 -24 10 -5 31 -9 47
-9 17 0 32 -4 35 -9 3 -4 22 -11 43 -14 60 -10 72 -13 79 -20 13 -13 33 -7 28
8 -7 18 7 20 24 3 15 -15 28 -2 14 14 -19 23 -83 141 -78 145 2 2 17 -16 32
-41 43 -67 63 -60 24 8 -13 21 -17 37 -11 40 6 4 15 -3 21 -14 6 -11 15 -18
21 -15 14 9 11 52 -6 69 -8 8 -15 21 -15 28 0 8 -6 20 -12 27 -11 11 -9 11 9
2 12 -6 24 -11 27 -11 10 0 36 65 36 91 0 15 5 31 10 34 6 3 10 14 10 25 0 13
5 17 18 13 12 -3 23 4 32 21 12 24 15 25 30 11 20 -18 36 -5 39 30 5 56 1 161
-8 189 -18 60 -21 86 -11 86 5 0 10 -10 10 -22 0 -13 11 -54 23 -92 22 -66 47
-99 63 -83 4 4 9 70 10 147 1 118 -1 142 -14 149 -19 11 -38 -6 -48 -43 -3
-14 -12 -26 -20 -26 -8 0 -14 -6 -14 -12 0 -9 -3 -9 -9 1 -5 8 -15 11 -23 8
-22 -8 -35 4 -43 41 -7 32 -6 33 14 22 17 -9 22 -8 27 5 4 9 2 21 -5 28 -6 6
-11 18 -11 27 0 8 8 0 16 -17 9 -18 21 -33 26 -33 17 0 58 32 58 46 0 8 4 14
9 14 21 0 34 61 26 128 -4 37 -9 90 -11 117 -5 83 -5 82 -16 58 -6 -13 -20
-23 -33 -23 -27 0 -45 -18 -45 -46 0 -12 -6 -27 -14 -33 -9 -8 -13 -34 -11
-96 2 -71 0 -83 -11 -74 -8 6 -14 22 -14 35 0 12 -7 29 -15 38 -8 8 -15 21
-15 28 -1 28 -27 49 -54 42 -27 -6 -30 -2 -26 44 1 12 -4 22 -10 22 -7 0 -10
-7 -6 -15 3 -8 1 -25 -4 -37 -5 -13 -10 -17 -11 -10 -5 35 -18 60 -36 66 -12
5 -14 -1 -9 -36 l5 -43 -10 38 c-6 20 -20 42 -30 48 -10 5 -19 16 -19 24 0 17
-16 20 -25 5 -4 -6 -11 -7 -17 -4 -7 5 -9 -9 -6 -45 4 -40 2 -54 -10 -60 -13
-8 -14 -12 -3 -24 9 -12 10 -27 3 -59 -9 -40 -10 -41 -11 -10 -1 18 -5 40 -10
50 -6 9 -17 38 -27 65 -9 26 -21 47 -25 47 -5 0 -9 7 -9 16 0 23 -35 68 -81
105 -38 30 -62 39 -116 42 -13 1 -23 5 -23 8 0 13 -52 20 -65 9 -11 -9 -19 -7
-36 9 -22 21 -34 23 -74 14z m140 -55 l16 -33 -21 24 c-11 13 -20 27 -20 32 0
18 10 8 25 -23z m376 -145 c-10 -17 -10 -16 -11 3 0 23 13 41 18 25 2 -6 -1
-18 -7 -28z m-111 -75 c0 -6 7 -19 16 -29 21 -23 10 -90 -11 -68 -17 18 -32
124 -16 115 6 -4 11 -12 11 -18z m150 -7 c0 -9 4 -21 9 -26 13 -15 23 -77 11
-70 -6 3 -10 19 -10 34 0 15 -4 31 -9 37 -15 15 -25 58 -12 50 6 -4 11 -15 11
-25z m347 -13 c-3 -7 -5 -2 -5 12 0 14 2 19 5 13 2 -7 2 -19 0 -25z m-290 -30
c-3 -7 -5 -2 -5 12 0 14 2 19 5 13 2 -7 2 -19 0 -25z m106 11 c3 -13 1 -19 -6
-16 -15 5 -22 37 -9 37 5 0 12 -9 15 -21z m-206 -61 c-3 -7 -5 -2 -5 12 0 14
2 19 5 13 2 -7 2 -19 0 -25z m217 17 c3 -8 1 -15 -4 -15 -6 0 -10 7 -10 15 0
8 2 15 4 15 2 0 6 -7 10 -15z m-97 -37 c-3 -8 -6 -5 -6 6 -1 11 2 17 5 13 3
-3 4 -12 1 -19z m121 -53 c-3 -3 -9 2 -12 12 -6 14 -5 15 5 6 7 -7 10 -15 7
-18z m-318 -67 c0 -5 4 -8 10 -8 15 0 50 -33 50 -47 0 -18 -19 -16 -26 1 -3 8
-23 26 -45 40 -21 15 -39 33 -39 42 0 13 4 12 25 -3 13 -10 25 -21 25 -25z
m-73 7 c9 -20 8 -25 -2 -25 -7 0 -15 11 -17 25 -7 32 4 32 19 0z m393 -72 c0
-12 -2 -12 -15 1 -8 8 -15 20 -15 27 0 9 4 8 15 -1 8 -7 15 -19 15 -27z m-163
-5 c-3 -8 -6 -5 -6 6 -1 11 2 17 5 13 3 -3 4 -12 1 -19z m116 2 c3 -11 1 -20
-4 -20 -5 0 -9 9 -9 20 0 11 2 20 4 20 2 0 6 -9 9 -20z m-196 -32 c-3 -8 -6
-5 -6 6 -1 11 2 17 5 13 3 -3 4 -12 1 -19z m40 0 c-3 -8 -6 -5 -6 6 -1 11 2
17 5 13 3 -3 4 -12 1 -19z m60 -170 c-3 -8 -6 -5 -6 6 -1 11 2 17 5 13 3 -3 4
-12 1 -19z m-7 -59 c0 -6 -4 -7 -10 -4 -5 3 -10 11 -10 16 0 6 5 7 10 4 6 -3
10 -11 10 -16z m-30 -419 c0 -5 -4 -10 -10 -10 -5 0 -10 5 -10 10 0 6 5 10 10
10 6 0 10 -4 10 -10z m-20 -25 c7 -8 8 -15 2 -15 -5 0 -15 7 -22 15 -7 8 -8
15 -2 15 5 0 15 -7 22 -15z m70 -35 c0 -5 -4 -10 -10 -10 -5 0 -10 5 -10 10 0
6 5 10 10 10 6 0 10 -4 10 -10z"/>
<path d="M4356 4471 c-4 -7 -5 -15 -2 -18 9 -9 19 4 14 18 -4 11 -6 11 -12 0z"/>
<path d="M4284 4461 c-44 -11 -53 -18 -47 -40 6 -24 42 -40 69 -30 37 13 37
28 -1 35 -36 6 -39 24 -4 24 10 0 19 5 19 10 0 6 -1 10 -2 9 -2 -1 -17 -4 -34
-8z"/>
<path d="M4348 4433 c6 -2 18 -2 25 0 6 3 1 5 -13 5 -14 0 -19 -2 -12 -5z"/>
<path d="M2987 4314 c-11 -12 -9 -126 3 -119 6 3 10 20 10 37 0 23 4 29 15 24
19 -7 20 8 2 26 -8 7 -16 19 -18 26 -2 7 -8 10 -12 6z"/>
<path d="M4662 4163 c-1 -103 2 -163 8 -163 6 0 10 -10 10 -22 0 -19 -2 -20
-10 -8 -12 18 -11 25 -16 -155 -2 -71 -1 -138 2 -148 7 -21 24 -13 24 13 0 10
7 20 14 23 19 8 78 131 112 237 8 25 19 54 24 65 5 11 14 44 20 73 7 28 16 55
21 58 10 6 12 84 3 108 -11 29 -24 17 -24 -23 0 -64 -20 -63 -59 2 -25 41 -44
49 -37 15 12 -58 15 -114 7 -127 -6 -10 -11 -5 -16 20 -4 19 -18 66 -31 104
-22 67 -24 68 -24 31 0 -51 -17 -36 -23 19 -2 22 -4 -33 -5 -122z m27 15 c0
-27 -2 -29 -8 -13 -5 11 -6 26 -4 33 8 21 13 13 12 -20z m1 -248 c0 -5 -2 -10
-4 -10 -3 0 -8 5 -11 10 -3 6 -1 10 4 10 6 0 11 -4 11 -10z"/>
<path d="M5487 4274 c-11 -11 -8 -132 3 -154 6 -11 15 -29 20 -40 6 -11 10
-27 10 -35 0 -8 5 -15 10 -15 6 0 10 -5 10 -10 0 -21 95 -129 105 -119 10 10
7 20 -80 229 -58 139 -66 155 -78 144z"/>
<path d="M3012 4188 c-33 -40 -55 -179 -31 -193 5 -4 18 0 28 9 10 9 30 16 44
16 15 0 27 5 27 10 0 6 14 10 30 10 17 0 30 4 30 10 0 5 10 9 23 7 19 -2 22 2
20 28 -7 92 -23 140 -35 105 -2 -6 -13 -12 -26 -13 -12 0 -25 -10 -28 -20 -4
-14 -9 -16 -17 -8 -17 17 -47 13 -47 -6 -1 -17 -1 -17 -11 0 -8 13 -7 22 2 33
6 8 10 17 7 19 -3 3 -10 0 -16 -7z"/>
<path d="M5416 4140 c-9 -22 -16 -49 -16 -59 0 -10 -6 -24 -14 -30 -17 -14
-50 -100 -42 -108 3 -4 -2 -16 -13 -27 -24 -27 -41 -80 -31 -96 5 -8 20 -10
46 -6 47 8 37 8 199 -2 72 -5 133 -7 138 -5 4 3 -30 42 -76 87 -91 90 -136
165 -145 241 -6 56 -25 58 -46 5z"/>
<path d="M5263 3758 c-20 -32 -61 -151 -56 -164 8 -21 23 -17 23 6 0 11 5 20
10 20 6 0 10 6 10 14 0 8 3 16 8 18 18 8 83 98 77 108 -9 14 -62 13 -72 -2z"/>
<path d="M3490 3499 c0 -5 4 -8 9 -5 5 4 7 -14 5 -39 -3 -25 0 -45 5 -45 11 0
20 57 13 82 -5 19 -32 25 -32 7z"/>
<path d="M4174 3194 c3 -9 6 -20 6 -25 0 -6 5 -7 10 -4 16 10 12 45 -6 45 -11
0 -14 -5 -10 -16z"/>
<path d="M1032 4488 c-8 -8 -12 -66 -12 -195 0 -170 1 -184 20 -203 24 -24 53
-26 70 -5 10 12 10 15 0 15 -10 0 -11 17 -6 73 17 192 19 309 5 318 -20 13
-63 11 -77 -3z"/>
<path d="M1176 4482 c-14 -14 -5 -50 14 -55 11 -3 17 -1 14 4 -3 5 2 12 10 15
11 4 13 11 7 22 -9 16 -35 24 -45 14z"/>
<path d="M908 4413 c-39 -48 -50 -132 -24 -195 15 -35 42 -65 51 -56 3 3 7 64
8 137 2 134 -3 151 -35 114z"/>
<path d="M1345 4343 c3 -32 10 -92 15 -133 6 -41 11 -112 13 -157 4 -90 23
-133 58 -133 15 0 19 5 15 15 -3 8 -5 74 -4 147 0 73 0 152 0 175 -1 66 -47
143 -84 143 -18 0 -19 -5 -13 -57z"/>
<path d="M1226 4275 c-9 -13 -16 -34 -16 -45 0 -12 -4 -30 -10 -40 -5 -10 -11
-39 -12 -65 0 -25 -5 -48 -10 -51 -4 -3 -8 2 -8 10 0 23 -37 19 -43 -4 -4 -15
0 -20 16 -21 12 -1 26 0 32 1 5 1 7 -1 3 -5 -3 -4 2 -15 12 -25 24 -24 98 -47
109 -34 4 5 4 38 0 74 -5 36 -12 102 -15 148 -6 69 -9 82 -24 82 -10 0 -25
-11 -34 -25z"/>
<path d="M7280 4036 c0 -9 5 -16 10 -16 6 0 10 4 10 9 0 6 -4 13 -10 16 -5 3
-10 -1 -10 -9z"/>
<path d="M6503 4480 c-20 -8 -23 -17 -23 -64 0 -30 5 -58 10 -61 6 -3 10 1 10
10 0 9 5 13 10 10 6 -4 10 -84 10 -206 l0 -200 36 3 36 3 4 205 c5 239 9 270
31 270 12 0 13 -3 4 -13 -8 -10 -7 -19 4 -33 13 -18 14 -17 15 18 0 34 -2 37
-47 52 -52 18 -68 19 -100 6z"/>
<path d="M6663 4433 c1 -10 6 -23 10 -30 7 -11 11 -365 5 -394 -2 -7 5 -14 14
-17 31 -6 50 51 50 152 0 50 4 117 10 149 12 68 6 100 -27 133 -29 29 -66 33
-62 7z"/>
<path d="M6795 4159 c-4 -12 -2 -26 3 -31 8 -8 10 -1 10 21 -1 36 -4 39 -13
10z"/>
<path d="M6673 3836 c7 -13 15 -22 19 -20 10 6 -9 44 -21 44 -5 0 -4 -11 2
-24z"/>
<path d="M6637 3643 c-4 -3 -7 -11 -7 -17 0 -6 5 -5 12 2 6 6 9 14 7 17 -3 3
-9 2 -12 -2z"/>
<path d="M2275 3420 c4 -6 11 -8 16 -5 14 9 11 15 -7 15 -8 0 -12 -5 -9 -10z"/>
<path d="M3314 2839 c-16 -18 -16 -19 8 -19 14 0 28 6 31 14 9 23 -19 27 -39
5z"/>
<path d="M2470 2413 c0 -12 40 -53 93 -97 42 -34 64 -46 53 -27 -11 18 -146
133 -146 124z"/>
<path d="M2620 2266 c0 -2 7 -9 15 -16 13 -11 14 -10 9 4 -5 14 -24 23 -24 12z"/>
<path d="M2700 2206 c0 -2 7 -9 15 -16 13 -11 14 -10 9 4 -5 14 -24 23 -24 12z"/>
<path d="M4912 2130 c-79 -55 -108 -80 -94 -80 21 0 57 23 117 74 55 48 41 51
-23 6z"/>
<path d="M2957 2092 c39 -39 129 -89 140 -78 4 3 -1 6 -9 6 -9 0 -18 3 -20 8
-5 11 -129 102 -139 102 -6 0 7 -17 28 -38z"/>
<path d="M4923 2046 c-13 -6 -23 -14 -23 -18 0 -5 -7 -8 -17 -8 -9 0 -14 -3
-10 -6 7 -8 87 27 87 38 0 10 -9 9 -37 -6z"/>
<path d="M4690 1987 c-14 -7 -36 -19 -50 -28 -14 -9 -59 -27 -100 -39 -81 -24
-168 -51 -240 -74 -52 -17 -24 -21 42 -6 24 5 67 14 96 20 64 12 260 87 284
108 10 8 15 19 12 23 -6 11 -12 10 -44 -4z"/>
<path d="M3290 1965 c-7 -9 -10 -18 -7 -21 10 -11 37 5 37 21 0 19 -14 19 -30
0z"/>
<path d="M4820 1911 c-25 -14 -64 -30 -85 -34 -18 -4 -17 -5 3 -6 12 0 39 7
60 16 20 9 46 20 57 24 l20 7 -20 0 c-11 1 -27 -3 -35 -7z"/>
<path d="M4396 1771 c-3 -4 6 -6 19 -3 14 2 25 6 25 8 0 8 -39 4 -44 -5z"/>
<path d="M2215 1490 c10 -11 19 -20 21 -20 1 0 0 9 -3 20 -3 11 -12 20 -21 20
-13 0 -12 -3 3 -20z"/>
<path d="M4060 1170 c-25 -4 -71 -11 -102 -14 -33 -4 -58 -12 -58 -19 0 -17
92 -101 132 -120 41 -19 129 -22 161 -5 34 18 56 47 68 92 17 61 6 71 -82 73
-41 0 -94 -2 -119 -7z"/>
<path d="M3270 1230 c0 -19 3 -21 12 -12 9 9 9 15 0 24 -9 9 -12 7 -12 -12z"/>
</g>
</svg>
